<svg width="16" height="14" viewBox="0 0 16 14" fill="none" xmlns="http://www.w3.org/2000/svg">
<path d="M10.2776 0.461548H3.99804C3.41892 0.461548 2.92354 0.792798 2.71422 1.2698L0.607081 5.94042C0.544286 6.0928 0.509399 6.2518 0.509399 6.42405V7.74905C0.509399 8.4778 1.13735 9.07405 1.90485 9.07405H6.30751L5.64467 12.1017L5.62374 12.3137C5.62374 12.5853 5.74235 12.837 5.93074 13.0159L6.67033 13.7115L11.2684 9.34567C11.5195 9.10717 11.673 8.77592 11.673 8.41155V1.78655C11.673 1.0578 11.0451 0.461548 10.2776 0.461548ZM13.0685 0.461548V8.41155H15.8594V0.461548H13.0685Z" fill="#ADADAD"/>
</svg>
