<svg width="17" height="15" viewBox="0 0 17 15" fill="none" xmlns="http://www.w3.org/2000/svg">
<path d="M1 13.8672H3.65455V6.51612H1V13.8672ZM15.6 7.1287C15.6 6.45486 15.0027 5.90353 14.2727 5.90353H10.0852L10.7156 3.10401L10.7355 2.90798C10.7355 2.65682 10.6227 2.42403 10.4435 2.25863L9.74009 1.61542L5.37336 5.65237C5.12782 5.8729 4.98182 6.17919 4.98182 6.51612V12.642C4.98182 13.3158 5.57909 13.8672 6.30909 13.8672H12.2818C12.8326 13.8672 13.3038 13.5609 13.5029 13.1198L15.5071 8.80107C15.5668 8.66017 15.6 8.51315 15.6 8.35388V7.1287Z" stroke="#ADADAD"/>
</svg>
