<svg width="17" height="15" viewBox="0 0 17 15" fill="none" xmlns="http://www.w3.org/2000/svg">
<path d="M10.2909 1.46155H4.31818C3.76736 1.46155 3.29618 1.76784 3.09709 2.2089L1.09291 6.52765C1.03318 6.66854 1 6.81556 1 6.97483V8.20001C1 8.87386 1.59727 9.42518 2.32727 9.42518H6.51482L5.88436 12.2247L5.86445 12.4207C5.86445 12.6719 5.97727 12.9047 6.15646 13.0701L6.85991 13.7133L11.2333 9.67635C11.4722 9.45581 11.6182 9.14952 11.6182 8.8126V2.68672C11.6182 2.01288 11.0209 1.46155 10.2909 1.46155ZM12.9455 1.46155V8.8126H15.6V1.46155H12.9455Z" stroke="#ADADAD"/>
</svg>
