<svg width="16" height="14" viewBox="0 0 16 14" fill="none" xmlns="http://www.w3.org/2000/svg">
<path d="M0.37738 13.8654H3.16829V5.91542H0.37738V13.8654ZM15.7274 6.57792C15.7274 5.84917 15.0994 5.25292 14.3319 5.25292H9.92927L10.5921 2.22529L10.613 2.01329C10.613 1.74167 10.4944 1.48992 10.306 1.31104L9.56645 0.615417L4.9754 4.98129C4.71724 5.21979 4.56374 5.55104 4.56374 5.91542V12.5404C4.56374 13.2692 5.1917 13.8654 5.9592 13.8654H12.2387C12.8179 13.8654 13.3132 13.5342 13.5226 13.0572L15.6297 8.38654C15.6925 8.23417 15.7274 8.07517 15.7274 7.90292V6.57792Z" fill="#ADADAD"/>
</svg>
