<svg width="31" height="30" viewBox="0 0 31 30" fill="none" xmlns="http://www.w3.org/2000/svg">
<path d="M30.0873 15C30.0873 6.71719 23.3841 0 15.1185 0C6.85288 0 0.149658 6.71719 0.149658 15C0.149658 23.2828 6.85288 30 15.1185 30C15.2062 30 15.2939 29.9982 15.3816 29.9965V18.3199H12.1656V14.5641H15.3816V11.8002C15.3816 8.59512 17.334 6.8502 20.1874 6.8502C21.5539 6.8502 22.728 6.95215 23.0707 6.99785V10.3477H21.1031C19.5506 10.3477 19.2501 11.0871 19.2501 12.1717V14.5641H22.9619L22.4783 18.3199H19.2507V29.4205C25.5072 27.6229 30.0873 21.8467 30.0873 15Z" fill="white"/>
</svg>
