<svg width="36" height="35" viewBox="0 0 36 35" fill="none" xmlns="http://www.w3.org/2000/svg">
<path d="M17.9981 0C8.03894 0.0188133 -0.0190554 7.96147 3.38467e-05 17.7406C0.0161646 26.0111 5.86107 33.169 14.079 34.9824C14.4841 35.0703 14.8852 34.8192 14.9749 34.4214C14.9866 34.3691 14.9926 34.3158 14.9926 34.2623V30.2488C14.9926 29.8413 14.6562 29.511 14.2413 29.511H12.7386C10.8632 29.511 9.58284 27.7654 8.46031 26.2249L8.11466 25.7557C8.62021 26.033 9.10343 26.3477 9.5603 26.6971C10.4057 27.4702 11.4935 27.9385 12.6454 28.0251C13.7781 28.1799 14.8241 27.4038 14.9818 26.2915C15.0038 26.136 15.0074 25.9785 14.9926 25.8221V25.3072C14.9926 24.9775 14.77 24.6878 14.4471 24.5974C10.2785 23.4391 7.47894 20.373 7.47894 16.9689C7.51 15.127 8.27942 13.3716 9.62031 12.0833C9.83678 11.8643 9.89348 11.537 9.7631 11.2599C9.21641 10.0443 9.29861 8.64462 9.984 7.49875C11.0388 7.91589 11.9813 8.56626 12.7385 9.39923C12.9423 9.63668 13.2757 9.72341 13.5725 9.61614C16.4342 8.60299 19.5664 8.60299 22.428 9.61614C22.7235 9.72134 23.0544 9.63474 23.2575 9.39923C24.014 8.56584 24.9561 7.91499 26.0105 7.49722C26.6959 8.6431 26.7781 10.0428 26.2314 11.2584C26.101 11.5354 26.1577 11.8627 26.3742 12.0818C27.716 13.3701 28.4861 15.1263 28.5171 16.9688C28.5171 20.5426 25.4079 23.743 20.9538 24.7509C20.5494 24.8422 20.2969 25.2381 20.3899 25.6351C20.4045 25.6977 20.4274 25.758 20.4579 25.8147C20.8789 26.7436 21.066 27.7583 21.0034 28.7732V34.2622C21.0034 34.6697 21.3399 35 21.7548 35C21.8094 34.9998 21.8638 34.9938 21.9171 34.9823C31.634 32.8382 37.7409 23.3654 35.5573 13.8244C33.7107 5.75506 26.421 0.0159083 17.9981 0Z" fill="white"/>
</svg>
