<svg width="31" height="30" viewBox="0 0 31 30" fill="none" xmlns="http://www.w3.org/2000/svg">
<path d="M30.0873 15C30.0873 23.2837 23.3849 30 15.1185 30C6.85127 30 0.149658 23.2844 0.149658 15C0.149658 6.71558 6.85127 0 15.1185 0C23.3857 0 30.0873 6.71558 30.0873 15Z" fill="white"/>
<path d="M26.6242 15.3765C26.6768 15.0953 26.7031 14.8587 26.7155 14.6734C26.7353 14.3665 26.7126 13.9124 26.7046 13.7696C26.4232 8.86159 21.342 4.95117 15.1147 4.95117C8.70694 4.95117 3.51245 9.09157 3.51245 14.1988C3.51245 18.8936 7.90076 22.7703 13.5864 23.3673C13.9343 23.4039 14.1843 23.7181 14.1463 24.066L13.9044 26.2493C13.8495 26.7452 14.3604 27.1055 14.8092 26.8888C19.6127 24.5662 22.4851 22.1763 24.2005 20.1058C24.5126 19.7293 25.53 18.3003 25.7376 17.9246C26.1776 17.1277 26.4809 16.2723 26.6242 15.3765Z" fill="#333333"/>
<path d="M8.73535 16.0721V12.1767C8.73535 11.8486 8.47003 11.582 8.14185 11.582C7.81366 11.582 7.54834 11.8479 7.54834 12.1767V16.6661C7.54834 16.9949 7.81439 17.2607 8.14185 17.2607H10.5159C10.8441 17.2607 11.1094 16.9942 11.1094 16.6661C11.1094 16.338 10.8433 16.0714 10.5159 16.0714H8.73535V16.0721Z" fill="white"/>
<path d="M12.3982 17.2617H12.1382C11.8818 17.2617 11.6738 17.0537 11.6738 16.7966V12.0469C11.6738 11.7905 11.8818 11.5825 12.1382 11.5825H12.3982C12.6545 11.5825 12.8625 11.7905 12.8625 12.0469V16.7966C12.8625 17.0537 12.6545 17.2617 12.3982 17.2617Z" fill="white"/>
<path d="M17.1921 12.1765V14.9194C17.1921 14.9194 14.8218 11.8213 14.7859 11.781C14.6727 11.6535 14.5053 11.5752 14.3211 11.5825C13.998 11.5942 13.751 11.8777 13.751 12.2007V16.6662C13.751 16.9951 14.017 17.261 14.3445 17.261C14.6727 17.261 14.938 16.9944 14.938 16.6662V13.9402C14.938 13.9402 17.3441 17.0654 17.3799 17.0991C17.4845 17.1987 17.6255 17.2602 17.7812 17.2617C18.1108 17.2646 18.3798 16.9724 18.3798 16.6428V12.1772C18.3798 11.8491 18.1145 11.5825 17.7863 11.5825C17.4581 11.5825 17.1921 11.8484 17.1921 12.1765Z" fill="white"/>
<path d="M22.83 12.1767C22.83 11.8486 22.5646 11.582 22.2365 11.582H19.8625C19.5351 11.582 19.269 11.8479 19.269 12.1767V16.6661C19.269 16.9949 19.5344 17.2607 19.8625 17.2607H22.2365C22.5646 17.2607 22.83 16.9942 22.83 16.6661C22.83 16.338 22.5646 16.0714 22.2365 16.0714H20.456V15.0161H22.2365C22.5646 15.0161 22.83 14.7495 22.83 14.4214C22.83 14.0926 22.5646 13.8267 22.2365 13.8267H20.456V12.7714H22.2365C22.5646 12.7721 22.83 12.5055 22.83 12.1767Z" fill="white"/>
</svg>
