<svg width="231" height="25" viewBox="0 0 231 25" fill="none" xmlns="http://www.w3.org/2000/svg">
<path d="M11.9983 3.41548C16.9699 3.41548 20.9971 7.44596 20.9971 12.4142C20.9971 17.3825 16.9699 21.4163 11.9983 21.4163C7.02674 21.4163 2.99958 17.3858 2.99958 12.4142C2.99958 7.44264 7.03007 3.41548 11.9983 3.41548ZM11.9983 0.415894C10.3788 0.415894 8.8092 0.73514 7.32604 1.36033C5.89608 1.96557 4.61244 2.83019 3.51171 3.93093C2.41097 5.03166 1.54635 6.3153 0.941111 7.74526C0.319246 9.22509 0 10.798 0 12.4142C0 14.0304 0.319246 15.6034 0.944437 17.0865C1.54967 18.5165 2.4143 19.8001 3.51503 20.9009C4.61577 22.0016 5.89941 22.8662 7.32936 23.4715C8.8092 24.0966 10.3822 24.4159 12.0017 24.4159C13.6212 24.4159 15.1908 24.0966 16.674 23.4715C18.1039 22.8662 19.3876 22.0016 20.4883 20.9009C21.589 19.8001 22.4537 18.5165 23.0589 17.0865C23.6841 15.6067 24.0033 14.0337 24.0033 12.4142C24.0033 10.7947 23.6841 9.22509 23.0589 7.74193C22.4537 6.31197 21.589 5.02834 20.4883 3.9276C19.3876 2.82687 18.1039 1.96224 16.674 1.357C15.1908 0.73514 13.6178 0.415894 11.9983 0.415894Z" fill="#333333"/>
<path d="M25.3301 19.5242H20.4683V16.5246H28.3264C28.3297 18.1807 26.9862 19.5242 25.3301 19.5242Z" fill="#333333"/>
<path d="M11.9983 9.41468C13.6544 9.41468 14.9979 10.7582 14.9979 12.4143C14.9979 14.0704 13.6544 15.4139 11.9983 15.4139C10.3422 15.4139 8.99873 14.0704 8.99873 12.4143C8.99873 10.7582 10.3422 9.41468 11.9983 9.41468ZM11.9983 6.4151C8.68946 6.4151 5.99915 9.10541 5.99915 12.4143C5.99915 15.7231 8.68946 18.4134 11.9983 18.4134C15.3072 18.4134 17.9975 15.7231 17.9975 12.4143C17.9975 9.10541 15.3072 6.4151 11.9983 6.4151Z" fill="#FFB600"/>
<path d="M26.9098 13.884H16.7106V10.8845H29.9094C29.9094 12.5406 28.5659 13.884 26.9098 13.884Z" fill="#FFB600"/>
<path d="M162.067 17.9544H143.91C143.468 17.9544 143.109 17.5953 143.109 17.153C143.109 16.7107 143.468 16.3516 143.91 16.3516H162.067C162.51 16.3516 162.869 16.7107 162.869 17.153C162.869 17.5953 162.51 17.9544 162.067 17.9544Z" fill="#333333"/>
<path d="M160.967 5.00169H145.014C144.572 5.00169 144.213 4.64253 144.213 4.20024C144.213 3.75796 144.572 3.3988 145.014 3.3988H160.967C161.409 3.3988 161.768 3.75796 161.768 4.20024C161.768 4.64253 161.409 5.00169 160.967 5.00169Z" fill="#333333"/>
<path d="M159.34 6.00264L146.63 6.02592C145.872 6.02592 145.26 6.63115 145.26 7.37274V16.5411H148.509V15.5268H157.468V16.5411H160.717V7.34613C160.717 6.60455 160.102 5.99931 159.34 6.00264ZM157.468 13.9206H148.509V12.8831H157.468V13.9206ZM157.468 11.2802H148.509V10.2426H157.468V11.2802ZM148.509 8.63974V7.6022H157.468V8.63974H148.509Z" fill="#333333"/>
<path d="M148.317 17.7948C147.405 18.8324 146.035 20.0362 144.486 20.7312C144.13 20.8909 144.333 21.3764 144.871 21.4628C147.086 21.822 149.451 20.8343 150.548 19.8367C151.316 19.135 148.579 17.4955 148.317 17.7948Z" fill="#333333"/>
<path d="M152.254 2.98721L150.678 6.29606H153.621L154.894 4.16443C155.413 3.29315 154.748 2.21902 153.69 2.21902H153.514C152.969 2.2157 152.477 2.51831 152.254 2.98721Z" fill="#333333"/>
<path d="M159.121 21.7854C158.143 21.4894 157.082 20.1526 154.811 19.0585C154.156 18.7426 154.711 18.2005 155.164 18.1739C156.9 18.0775 160.425 18.8157 161.239 19.85C161.861 20.6448 161.046 22.3674 159.121 21.7854Z" fill="#333333"/>
<path d="M169.157 3.08359L167.983 5.96346L170.87 5.91358L171.771 4.25416C172.267 3.34631 171.612 2.2356 170.584 2.2356H170.411C169.859 2.2356 169.363 2.57147 169.157 3.08359Z" fill="#333333"/>
<path d="M173.627 5.64679H167.258C166.693 5.64679 166.234 6.10903 166.234 6.67769V19.9264C166.234 20.4951 166.693 20.9573 167.258 20.9573H173.627C174.192 20.9573 174.651 20.4951 174.651 19.9264V6.67769C174.651 6.10903 174.192 5.64679 173.627 5.64679ZM171.468 19.0884H169.423V13.894H171.468V19.0884ZM169.42 12.0251V7.51571H171.465V12.0284H169.42V12.0251Z" fill="#333333"/>
<path d="M177.408 6.41165V6.75085C177.408 7.17319 177.747 7.51571 178.166 7.51571H181.531C181.834 18.8157 180.693 19.943 180.328 19.8799L177.897 19.7003C177.315 19.657 176.872 20.2822 177.158 20.7977C177.218 20.9041 177.305 21.0005 177.424 21.0704C177.424 21.0704 181.016 21.6656 181.614 21.6956C182.882 21.7588 184.075 21.5326 184.318 20.2756C184.734 18.124 185.106 13.4617 184.86 6.38505C184.847 5.97269 184.511 5.64679 184.102 5.64679H178.166C177.747 5.64679 177.408 5.98931 177.408 6.41165Z" fill="#333333"/>
<path d="M178.535 2.36121C177.817 2.36121 177.195 2.8567 177.029 3.55838C176.576 5.45723 175.462 8.6896 174.894 10.0165C174.618 10.6616 175.825 10.9543 176.264 10.5286C177.724 9.11526 178.918 6.56462 179.912 4.64249C180.451 3.60494 179.699 2.36121 178.535 2.36121Z" fill="#333333"/>
<path d="M178.183 15.6599C177.631 15.048 177.604 13.1292 176.66 11.4166C176.453 11.0441 176.842 10.7814 177.198 10.9643C178.761 11.7691 180.57 13.6713 180.68 14.7953C180.763 15.6566 179.263 16.8637 178.183 15.6599Z" fill="#333333"/>
<path d="M214.623 3.08359L213.449 5.96346L216.336 5.91358L217.237 4.25416C217.733 3.34631 217.077 2.2356 216.05 2.2356H215.877C215.328 2.2356 214.833 2.57147 214.623 3.08359Z" fill="#333333"/>
<path d="M219.096 5.64679H212.728C212.162 5.64679 211.703 6.10903 211.703 6.67769V19.9264C211.703 20.4951 212.162 20.9573 212.728 20.9573H219.096C219.661 20.9573 220.12 20.4951 220.12 19.9264V6.67769C220.12 6.10903 219.661 5.64679 219.096 5.64679ZM216.935 19.0884H214.889V13.894H216.935V19.0884ZM214.889 12.0251V7.51571H216.935V12.0284H214.889V12.0251Z" fill="#333333"/>
<path d="M222.874 6.41165V6.75085C222.874 7.17319 223.213 7.51571 223.632 7.51571H226.997C227.3 18.8157 226.159 19.943 225.794 19.8799L223.363 19.7003C222.781 19.657 222.338 20.2822 222.624 20.7977C222.684 20.9041 222.771 21.0005 222.89 21.0704C222.89 21.0704 226.482 21.6656 227.081 21.6956C228.348 21.7588 229.541 21.5326 229.784 20.2756C230.2 18.124 230.572 13.4617 230.326 6.38505C230.313 5.97269 229.977 5.64679 229.568 5.64679H223.632C223.216 5.64679 222.874 5.98931 222.874 6.41165Z" fill="#333333"/>
<path d="M224.004 2.36121C223.286 2.36121 222.664 2.8567 222.498 3.55838C222.046 5.45723 220.932 8.6896 220.363 10.0165C220.087 10.6616 221.294 10.9543 221.733 10.5286C223.193 9.11526 224.387 6.56462 225.381 4.64249C225.917 3.60494 225.168 2.36121 224.004 2.36121Z" fill="#333333"/>
<path d="M223.649 15.6599C223.097 15.048 223.07 13.1292 222.126 11.4166C221.919 11.0441 222.308 10.7814 222.664 10.9643C224.227 11.7691 226.036 13.6713 226.146 14.7953C226.233 15.6566 224.733 16.8637 223.649 15.6599Z" fill="#333333"/>
<path d="M191.681 2.17505C190.962 2.17505 190.341 2.66722 190.174 3.36225C189.722 5.24779 188.608 10.0032 188.039 11.3201C187.763 11.9619 188.764 12.5672 189.409 11.8289C190.746 10.2892 192.293 7.58561 193.058 4.4397C193.33 3.30904 192.845 2.17505 191.681 2.17505Z" fill="#333333"/>
<path d="M191.208 21.5825C190.49 21.5825 189.905 21.0006 189.905 20.2789V5.76654H192.509V20.2789C192.512 20.9972 191.927 21.5825 191.208 21.5825Z" fill="#333333"/>
<path d="M199.915 2.90662H194.707C194.135 2.90662 193.673 3.36886 193.673 3.94084V20.2756C193.673 20.9939 194.255 21.5792 194.976 21.5792C195.695 21.5792 196.28 20.9972 196.28 20.2756V10.3191H199.921C200.493 10.3191 200.955 9.85687 200.955 9.28489V3.94417C200.952 3.37218 200.487 2.90662 199.915 2.90662ZM198.348 8.4635H196.277V4.76223H198.348V8.4635Z" fill="#333333"/>
<path d="M201.644 3.83443C201.644 4.34655 202.06 4.76223 202.572 4.76223H204.853V8.4635H202.572C202.06 8.4635 201.644 8.87918 201.644 9.3913C201.644 9.90343 202.06 10.3191 202.572 10.3191H206.828C207.34 10.3191 207.756 9.90343 207.756 9.3913V3.83443C207.756 3.3223 207.34 2.90662 206.828 2.90662H202.572C202.06 2.90662 201.644 3.3223 201.644 3.83443Z" fill="#333333"/>
<path d="M199.639 13.8874H193.673V12.0317H199.639C200.151 12.0317 200.566 12.4474 200.566 12.9595C200.566 13.4717 200.151 13.8874 199.639 13.8874Z" fill="#333333"/>
<path d="M199.639 17.5587H193.673V15.7031H199.639C200.151 15.7031 200.566 16.1187 200.566 16.6309C200.566 17.143 200.151 17.5587 199.639 17.5587Z" fill="#333333"/>
<path d="M207.557 18.9853C204.9 17.7782 203.187 15.8527 201.973 13.9272C201.903 13.8142 201.438 13.7244 201.468 14.1135C201.704 17.0898 203.513 21.2799 206.782 21.6889C208.328 21.8851 209.682 19.953 207.557 18.9853Z" fill="#333333"/>
<path d="M206.828 11.2968H202.376C201.863 11.2968 201.448 11.7125 201.448 12.2246C201.448 12.7367 201.863 13.1524 202.376 13.1524H204.677C204.461 15.8926 203.689 18.9853 199.236 20.6547C198.648 20.8742 198.974 21.6756 199.575 21.5692C205.428 20.535 207.4 17.0466 207.743 13.1558C207.753 13.0327 207.756 12.627 207.756 12.2279C207.756 11.7125 207.34 11.2968 206.828 11.2968Z" fill="#333333"/>
<path d="M55.6985 14.4595C55.3394 14.1435 54.907 13.9839 54.4082 13.9839C54.0191 13.9839 52.7322 14.1036 52.4661 15.6566C52.0538 18.0277 49.8623 19.7403 47.4812 19.5607C44.1824 19.308 42.942 15.7763 42.8821 12.5573C42.8289 9.8071 43.4674 7.74863 44.7776 6.44172C46.1045 5.1215 47.6309 5.05167 48.0665 5.06164C50.7868 5.12483 51.5816 7.0403 52.0571 8.18759C52.1635 8.44033 52.2533 8.65981 52.3398 8.80613C53.0082 10.3192 54.079 10.3192 54.4315 10.3192C54.9137 10.3192 55.3327 10.1496 55.6719 9.81708C56.0144 9.48121 56.1874 9.0888 56.1874 8.64984C56.1874 7.88165 55.8482 7.06026 55.1797 6.20561C54.5146 5.35761 53.5469 4.63931 52.3065 4.064C51.0628 3.49201 49.6295 3.2027 48.0433 3.2027C46.743 3.2027 45.4993 3.41553 44.3486 3.83454C43.1947 4.25355 42.1771 4.87541 41.3191 5.67686C40.4612 6.48162 39.7894 7.46264 39.3305 8.5933C38.8716 9.72064 38.6388 11.0176 38.6388 12.4409C38.6388 13.3188 38.7319 14.1602 38.9148 14.9383C39.0977 15.7198 39.3771 16.468 39.7429 17.1564C40.1087 17.8448 40.5576 18.4766 41.0764 19.0353C41.6583 19.6505 42.3068 20.1527 42.9985 20.5285C43.6935 20.9042 44.475 21.1836 45.323 21.3632C46.1677 21.5394 47.1188 21.6292 48.1497 21.6292C49.5131 21.6292 50.7269 21.4297 51.7545 21.0339C52.7821 20.6382 53.64 20.1161 54.3051 19.4776C54.9669 18.8424 55.4624 18.184 55.7717 17.5222C56.0843 16.8571 56.2406 16.2286 56.2406 15.6533C56.2439 15.1778 56.061 14.7754 55.6985 14.4595Z" fill="#333333"/>
<path d="M70.6399 9.95006C69.9914 9.34815 69.2066 8.87926 68.2988 8.55669C67.3942 8.23412 66.3766 8.07117 65.2692 8.07117C64.1785 8.07117 63.1709 8.23412 62.2663 8.55336C61.3585 8.87261 60.577 9.33485 59.9385 9.93011C59.3 10.522 58.8012 11.247 58.462 12.085C58.1195 12.9197 57.9465 13.8509 57.9465 14.8551C57.9465 15.8495 58.1161 16.7706 58.452 17.5953C58.7912 18.4201 59.29 19.145 59.9418 19.7503C60.5936 20.3555 61.3718 20.8244 62.2597 21.1503C63.1443 21.4729 64.1552 21.6358 65.2626 21.6358C66.3766 21.6358 67.3976 21.4729 68.2921 21.1536C69.19 20.8344 69.9715 20.3655 70.6199 19.7669C71.2684 19.165 71.7706 18.4367 72.1098 17.602C72.4523 16.7673 72.6219 15.8428 72.6219 14.8585C72.6219 13.8642 72.4523 12.9397 72.1164 12.115C71.7872 11.2769 71.2884 10.552 70.6399 9.95006ZM68.7444 14.8518C68.7444 16.3682 68.4251 17.5654 67.7933 18.4167C67.1714 19.2581 66.3201 19.6837 65.2692 19.6837C64.5742 19.6837 63.9623 19.4909 63.4502 19.1084C62.9348 18.726 62.5324 18.164 62.2564 17.439C61.977 16.7074 61.834 15.8362 61.834 14.8485C61.834 13.8542 61.9803 12.9729 62.263 12.2313C62.5457 11.4964 62.9514 10.9344 63.4702 10.562C63.9856 10.1895 64.5942 9.99995 65.2726 9.99995C66.3234 9.99995 67.1747 10.4223 67.7966 11.2603C68.4251 12.1116 68.7444 13.3188 68.7444 14.8518Z" fill="#333333"/>
<path d="M79.9181 5.19799C80.0677 5.17471 80.3005 5.18801 80.5566 5.38089L80.6663 5.46403C81.082 5.78327 81.5476 6.14575 82.4587 5.94955C83.3167 5.76332 83.7025 5.12483 83.7025 4.72909C83.7025 3.74475 82.4521 3.2027 80.1808 3.2027C78.9736 3.2027 78.0092 3.34569 77.3109 3.62503C76.5992 3.91103 76.0838 4.37659 75.7845 5.00511C75.4885 5.62365 75.3422 6.46167 75.3422 7.49922V8.54342H73.9056C73.2205 8.54342 72.6619 9.05222 72.6619 9.68074C72.6619 10.3059 73.2205 10.8181 73.9056 10.8181H75.3422V19.5208C75.3422 20.1992 75.5251 20.728 75.8909 21.0871C76.2534 21.4496 76.7156 21.6325 77.2577 21.6325C77.8297 21.6325 78.3019 21.4496 78.6677 21.0871C79.0302 20.7247 79.2164 20.1959 79.2164 19.5208V10.8147H80.8658C81.5509 10.8147 82.1096 10.3059 82.1096 9.67741C82.1096 9.05222 81.5509 8.5401 80.8658 8.5401H79.2164V7.56573C79.2164 6.96049 79.2131 5.83648 79.4725 5.46735C79.5722 5.32435 79.7352 5.22459 79.9181 5.19799Z" fill="#333333"/>
<path d="M96.1365 16.9602C96.1464 16.3051 96.1531 15.7098 96.1564 15.1744C96.1597 14.639 96.1631 13.9872 96.1631 13.219C96.1631 11.9886 95.9669 10.9876 95.5844 10.236C95.1954 9.47451 94.5236 8.91251 93.5858 8.56333C92.6647 8.22081 91.3844 8.04456 89.7848 8.04456C88.3515 8.04456 87.1344 8.22413 86.17 8.57996C85.199 8.93911 84.4707 9.40135 84.0051 9.96003C83.5362 10.5254 83.3001 11.114 83.3001 11.7159C83.3001 12.3278 83.5961 13.0494 84.4275 13.239C85.036 13.3753 85.5415 13.3121 85.9272 13.0494C86.446 12.6969 86.5957 12.0983 86.6322 11.8556C86.8085 10.7715 87.314 10.5187 87.7629 10.2959C88.2451 10.0565 88.9468 9.94008 89.7848 9.96003C90.7226 9.98331 91.6803 10.0565 92.2024 10.6517C92.545 11.0441 92.6746 11.6327 92.5948 12.4508C92.0794 12.5838 91.4941 12.7002 90.972 12.8066C90.7425 12.8532 90.5297 12.8964 90.3368 12.9363C89.6917 13.076 88.9035 13.229 87.9957 13.3986C87.0878 13.5649 86.5125 13.6746 86.2797 13.7245C85.1624 13.944 84.2712 14.3829 83.626 15.0281C82.9509 15.7065 82.6483 16.9136 82.6483 17.8115C82.6483 18.4965 82.8478 19.1417 83.2403 19.727C83.6327 20.3123 84.1947 20.7778 84.9163 21.1203C85.6346 21.4595 86.4759 21.6291 87.4204 21.6291C88.448 21.6291 89.3891 21.4729 90.2204 21.1603C91.0152 20.861 91.8433 20.4153 92.6879 19.8301C93.0737 20.3854 93.4462 20.8211 93.7953 21.1237C94.1811 21.4595 94.5768 21.6291 94.9792 21.6291C95.4481 21.6291 95.8738 21.4795 96.2429 21.1902C96.622 20.8909 96.8149 20.5517 96.8149 20.1759C96.8149 19.9697 96.7018 19.5341 96.469 18.8457C96.2495 18.1939 96.1365 17.5621 96.1365 16.9602ZM92.4818 14.5692C92.4751 15.1345 92.3986 16.9668 91.7535 17.9146C91.4941 18.297 90.3734 19.3811 88.6375 19.3379C87.9392 19.3179 87.4104 19.135 87.0147 18.7759C86.6023 18.4001 86.4028 17.9578 86.4028 17.4224C86.4028 16.9103 86.5691 16.5212 86.9116 16.2385C87.2641 15.9459 87.6399 15.7464 88.0256 15.6466C88.4313 15.5402 89.1696 15.3772 90.2138 15.1544C91.1749 14.9516 91.9364 14.7554 92.4818 14.5692Z" fill="#333333"/>
<path d="M110.828 15.9559C110.007 15.8328 109.033 16.2552 108.827 17.1763C108.813 17.2362 108.8 17.3027 108.787 17.3792C108.63 18.2039 108.338 19.7369 105.707 19.7369C102.94 19.7369 102.202 16.7108 102.202 14.925C102.202 13.086 102.651 10.0033 105.654 10.0033C107.806 10.0033 108.245 11.2237 108.537 12.0285C108.617 12.2513 108.687 12.4408 108.78 12.5805C109.292 13.3587 109.891 13.5216 110.303 13.5216C110.792 13.5216 111.214 13.3753 111.557 13.086C111.906 12.79 112.085 12.4242 112.085 11.9952C112.085 11.5895 111.933 11.1506 111.633 10.6883C111.337 10.236 110.908 9.80041 110.353 9.40135C109.801 9.00229 109.119 8.6764 108.324 8.42366C107.533 8.17425 106.652 8.04456 105.704 8.04456C104.177 8.04456 102.844 8.33387 101.743 8.90253C100.636 9.47451 99.7812 10.2959 99.1959 11.3434C98.614 12.3876 98.318 13.6081 98.318 14.9649C98.318 16.9735 98.9665 18.5996 100.243 19.7968C101.517 20.994 103.313 21.5992 105.574 21.5992C106.635 21.5992 107.603 21.4695 108.451 21.2101C109.302 20.9507 110.017 20.6049 110.582 20.1759C111.144 19.7502 111.573 19.2913 111.849 18.8158C112.129 18.3336 112.272 17.8747 112.272 17.4457C112.268 17.0666 112.129 16.1488 110.828 15.9559Z" fill="#333333"/>
<path d="M121.922 18.6728C121.43 18.6728 121.177 18.9289 120.935 19.1783C120.679 19.4377 120.439 19.6837 119.904 19.6837C119.345 19.6837 119.062 18.736 119.062 16.8637V10.8114H120.689C121.374 10.8114 121.932 10.3026 121.932 9.67405C121.932 9.04886 121.374 8.53673 120.689 8.53673H119.062V6.24548C119.062 5.6868 119.029 5.25116 118.959 4.94189C118.886 4.61599 118.713 4.33665 118.447 4.11384C118.055 3.78462 117.609 3.61835 117.12 3.61835C116.774 3.61835 116.455 3.69483 116.173 3.84115C115.89 3.9908 115.667 4.19033 115.517 4.42644C115.364 4.65922 115.271 4.93524 115.238 5.25448C115.208 5.5571 115.192 5.97944 115.192 6.50819V8.53673H114.407C113.722 8.53673 113.163 9.04553 113.163 9.67405C113.163 10.2992 113.722 10.8114 114.407 10.8114H115.192V17.1265C115.192 18.1507 115.285 18.9787 115.468 19.5973C115.657 20.2325 116.063 20.7379 116.671 21.0938C117.273 21.4463 118.161 21.6258 119.312 21.6258C120.519 21.6258 121.46 21.4795 122.112 21.1968C122.794 20.8976 123.143 20.4519 123.143 19.8733C123.139 19.5408 122.92 18.6728 121.922 18.6728Z" fill="#333333"/>
<path d="M135.843 15.5468C135.467 15.068 134.905 14.6456 134.18 14.2965C133.462 13.9506 132.524 13.648 131.396 13.3986C130.455 13.1924 129.704 13.0162 129.172 12.8732C128.646 12.7335 128.227 12.5572 127.921 12.3444C127.635 12.1482 127.496 11.9054 127.496 11.5995C127.496 11.2969 127.599 9.79709 129.657 9.79709C131.546 9.79709 131.849 10.7947 131.992 11.2736C132.005 11.3135 132.015 11.3468 132.025 11.3767C132.381 12.4375 133.571 12.8499 134.516 12.6337C135.464 12.4209 135.716 11.6328 135.716 11.2038C135.716 10.8346 135.577 10.4555 135.301 10.0764C135.031 9.70398 134.632 9.36145 134.12 9.05883C133.611 8.75954 132.969 8.51678 132.211 8.33721C131.456 8.16095 130.595 8.07117 129.654 8.07117C128.447 8.07117 127.403 8.25074 126.545 8.60324C125.683 8.95907 125.018 9.44127 124.573 10.0399C124.124 10.6418 123.898 11.2936 123.898 11.972C123.898 12.7368 124.147 13.3886 124.636 13.914C125.115 14.4295 125.763 14.8485 126.561 15.1611C127.346 15.4704 128.377 15.7697 129.627 16.049C130.718 16.2851 131.51 16.5345 131.978 16.7939C132.451 17.0533 132.673 17.4357 132.64 17.9379C132.574 18.8989 131.742 19.87 130.279 19.87C128.606 19.87 127.482 19.1084 126.94 17.6053C126.661 16.8238 125.783 16.4314 124.809 16.6509C123.964 16.8405 123.738 17.5854 123.738 17.9944C123.738 18.5664 123.971 19.1384 124.43 19.6971C124.885 20.2491 125.594 20.718 126.538 21.0838C127.476 21.4463 128.62 21.6325 129.93 21.6325C131.3 21.6325 132.484 21.4629 133.445 21.127C134.416 20.7878 135.161 20.2823 135.66 19.6206C136.162 18.9588 136.415 18.154 136.415 17.2262C136.421 16.601 136.225 16.0357 135.843 15.5468Z" fill="#333333"/>
</svg>
