<svg width="110" height="31" viewBox="0 0 110 31" fill="none" xmlns="http://www.w3.org/2000/svg">
<path d="M15.5905 3.875C22.0487 3.875 27.2833 9.07926 27.2833 15.5C27.2833 21.9207 22.0487 27.125 15.5905 27.125C9.13226 27.125 3.89762 21.9207 3.89762 15.5C3.89762 9.07926 9.13226 3.875 15.5905 3.875ZM15.5905 0C13.4864 0 11.4444 0.410863 9.52121 1.21916C7.66289 2.00061 5.99634 3.11772 4.56748 4.53829C3.13862 5.95885 2.01228 7.6211 1.22628 9.46596C0.413261 11.3806 0 13.4108 0 15.5C0 17.5892 0.413261 19.6221 1.22628 21.5367C2.01228 23.3843 3.13592 25.0411 4.56478 26.4617C5.99364 27.8823 7.66289 29.0021 9.51851 29.7808C11.4444 30.5891 13.4864 31 15.5878 31C17.6919 31 19.7339 30.5891 21.657 29.7808C23.5154 28.9994 25.1819 27.8823 26.6108 26.4617C28.0396 25.0411 29.1714 23.3816 29.9574 21.5367C30.7704 19.6221 31.1837 17.5919 31.1837 15.5027C31.1837 13.4135 30.7704 11.3806 29.9574 9.46864C29.1714 7.6211 28.0477 5.96422 26.6189 4.54366C25.19 3.12309 23.5181 2.00061 21.6624 1.21916C19.7366 0.410863 17.6946 0 15.5905 0Z" fill="#333333"/>
<path d="M32.9124 24.6866H26.5973V20.809H36.81C36.81 22.9492 35.0651 24.6866 32.9124 24.6866Z" fill="#333333"/>
<path d="M15.5905 11.625C17.7433 11.625 19.4881 13.3598 19.4881 15.5C19.4881 17.6402 17.7433 19.375 15.5905 19.375C13.4378 19.375 11.6929 17.6402 11.6929 15.5C11.6929 13.3598 13.4378 11.625 15.5905 11.625ZM15.5905 7.75C11.2932 7.75 7.79529 11.2276 7.79529 15.5C7.79529 19.7724 11.2932 23.25 15.5905 23.25C19.8879 23.25 23.3858 19.7724 23.3858 15.5C23.3885 11.2276 19.8906 7.75 15.5905 7.75Z" fill="#FFB600"/>
<path d="M34.965 17.4013H21.7109V13.5236H38.8626C38.8626 15.6639 37.1177 17.4013 34.965 17.4013Z" fill="#FFB600"/>
<path d="M59.0742 11.7451H45.4451C45.1128 11.7451 44.8429 11.4768 44.8429 11.1465C44.8429 10.8161 45.1128 10.5478 45.4451 10.5478H59.0742C59.4065 10.5478 59.6764 10.8161 59.6764 11.1465C59.6741 11.4768 59.4043 11.7451 59.0742 11.7451Z" fill="#333333"/>
<path d="M58.2467 2.0776H46.2725C45.9401 2.0776 45.6703 1.80931 45.6703 1.47892C45.6703 1.14854 45.9401 0.880249 46.2725 0.880249H58.2467C58.579 0.880249 58.8489 1.14854 58.8489 1.47892C58.8467 1.81152 58.579 2.0776 58.2467 2.0776Z" fill="#333333"/>
<path d="M57.0268 2.82484L47.4858 2.84258C46.9171 2.84258 46.4576 3.29269 46.4576 3.84702V10.6897H48.8953V9.93356H55.6218V10.6897H58.0595V3.82928C58.0595 3.27274 57.5978 2.82262 57.0268 2.82484ZM55.6218 8.73621H48.8953V7.96014H55.6218V8.73621ZM55.6218 6.76501H48.8953V5.98895H55.6218V6.76501ZM48.8953 4.79382V4.01775H55.6218V4.79382H48.8953Z" fill="#333333"/>
<path d="M48.7525 11.6254C48.0678 12.3993 47.0397 13.2973 45.8777 13.8161C45.6101 13.9359 45.764 14.2973 46.1676 14.3616C47.8292 14.6299 49.6045 13.8915 50.4274 13.1465C51.0028 12.6276 48.9488 11.4015 48.7525 11.6254Z" fill="#333333"/>
<path d="M51.7055 0.574285L50.5234 3.04438H52.7314L53.6859 1.45234C54.0762 0.802669 53.5767 0 52.7827 0H52.6489C52.243 0 51.8727 0.223949 51.7055 0.574285Z" fill="#333333"/>
<path d="M56.8617 14.6055C56.128 14.3838 55.3318 13.386 53.6256 12.57C53.135 12.335 53.5498 11.9292 53.891 11.9115C55.1957 11.8383 57.8408 12.3904 58.4519 13.162C58.9203 13.7541 58.3047 15.0401 56.8617 14.6055Z" fill="#333333"/>
<path d="M64.0543 0.629733L63.1733 2.78053L65.3389 2.74284L66.0169 1.50557C66.3871 0.827074 65.8965 1.45979e-05 65.1248 1.45979e-05H64.9955C64.5806 -0.00220272 64.2104 0.248354 64.0543 0.629733Z" fill="#333333"/>
<path d="M67.4085 2.54547H62.6291C62.2053 2.54547 61.8596 2.88916 61.8596 3.31488V13.2019C61.8596 13.6276 62.2031 13.9713 62.6291 13.9713H67.4085C67.8323 13.9713 68.1779 13.6276 68.1779 13.2019V3.31488C68.1779 2.88916 67.8345 2.54547 67.4085 2.54547ZM65.7871 12.5766H64.2505V8.69853H65.7871V12.5766ZM64.2527 7.30605V3.93795H65.7893V7.30383H64.2527V7.30605Z" fill="#333333"/>
<path d="M70.2478 3.11538V3.36815C70.2478 3.68301 70.502 3.938 70.8165 3.938H73.3434C73.5708 12.3727 72.7144 13.2108 72.4379 13.1665L70.6135 13.0334C70.1764 13.0024 69.8441 13.468 70.0604 13.8516C70.105 13.9315 70.1719 14.0024 70.2611 14.0556C70.2611 14.0556 72.9575 14.5013 73.408 14.5235C74.3604 14.57 75.2569 14.4015 75.4376 13.4658C75.7498 11.8583 76.0286 8.37929 75.8457 3.09986C75.8346 2.79165 75.5825 2.54774 75.277 2.54774H70.8209C70.502 2.54553 70.2478 2.80052 70.2478 3.11538Z" fill="#333333"/>
<path d="M71.095 0.0931396C70.5575 0.0931396 70.0892 0.463432 69.9643 0.986719C69.6231 2.40359 68.7867 4.81603 68.3607 5.80495C68.1533 6.28611 69.0588 6.50562 69.3889 6.18633C70.4839 5.13089 71.3805 3.22843 72.1276 1.79382C72.5313 1.01998 71.9671 0.0931396 71.095 0.0931396Z" fill="#333333"/>
<path d="M70.8276 10.0179C70.415 9.56113 70.3927 8.13096 69.6857 6.84935C69.5318 6.57219 69.8217 6.37484 70.0894 6.51232C71.2625 7.11321 72.6207 8.53229 72.7032 9.37266C72.7679 10.0135 71.6416 10.9159 70.8276 10.0179Z" fill="#333333"/>
<path d="M97.2364 0.629733L96.3555 2.78053L98.5211 2.74284L99.199 1.50557C99.5693 0.827074 99.0786 1.45979e-05 98.3069 1.45979e-05H98.1776C97.765 -0.00220272 97.3925 0.248354 97.2364 0.629733Z" fill="#333333"/>
<path d="M100.593 2.54547H95.8136C95.3899 2.54547 95.0442 2.88916 95.0442 3.31488V13.2019C95.0442 13.6276 95.3876 13.9713 95.8136 13.9713H100.593C101.017 13.9713 101.363 13.6276 101.363 13.2019V3.31488C101.36 2.88916 101.017 2.54547 100.593 2.54547ZM98.9717 12.5766H97.435V8.69853H98.9717V12.5766ZM97.435 7.30605V3.93795H98.9717V7.30383H97.435V7.30605Z" fill="#333333"/>
<path d="M103.43 3.11538V3.36815C103.43 3.68301 103.684 3.938 103.999 3.938H106.525C106.753 12.3727 105.897 13.2108 105.62 13.1665L103.796 13.0334C103.359 13.0024 103.026 13.468 103.243 13.8516C103.287 13.9315 103.354 14.0024 103.443 14.0556C103.443 14.0556 106.14 14.5013 106.59 14.5235C107.542 14.57 108.439 14.4015 108.62 13.4658C108.932 11.8583 109.211 8.37929 109.028 3.09986C109.017 2.79165 108.765 2.54774 108.459 2.54774H104.003C103.684 2.54553 103.43 2.80052 103.43 3.11538Z" fill="#333333"/>
<path d="M104.277 0.0931396C103.74 0.0931396 103.272 0.463432 103.147 0.986719C102.805 2.40359 101.969 4.81603 101.543 5.80495C101.336 6.28611 102.241 6.50562 102.571 6.18633C103.666 5.13089 104.563 3.22843 105.31 1.79382C105.714 1.01998 105.152 0.0931396 104.277 0.0931396Z" fill="#333333"/>
<path d="M104.01 10.0179C103.597 9.56113 103.575 8.13096 102.868 6.84935C102.714 6.57219 103.004 6.37484 103.271 6.51232C104.445 7.11321 105.803 8.53229 105.885 9.37266C105.95 10.0135 104.824 10.9159 104.01 10.0179Z" fill="#333333"/>
<path d="M80.7474 0C80.2099 0 79.7415 0.365857 79.6166 0.886927C79.2754 2.29492 78.4391 5.84263 78.0131 6.8249C77.8057 7.30384 78.5595 7.75618 79.0412 7.20407C80.0449 6.05549 81.2046 4.03774 81.78 1.6896C81.9852 0.847015 81.6194 0 80.7474 0Z" fill="#333333"/>
<path d="M80.3927 14.4836C79.853 14.4836 79.4159 14.049 79.4159 13.5124V2.68085H81.3718V13.5102C81.3696 14.0468 80.9325 14.4836 80.3927 14.4836Z" fill="#333333"/>
<path d="M86.9295 0.545471H83.0176C82.5872 0.545471 82.2393 0.891373 82.2393 1.31932V13.5101C82.2393 14.0467 82.6764 14.4813 83.2161 14.4813C83.7558 14.4813 84.193 14.0467 84.193 13.5101V6.07768H86.9251C87.3555 6.07768 87.7034 5.73178 87.7034 5.30383V1.31932C87.7056 0.89359 87.3577 0.545471 86.9295 0.545471ZM85.7497 4.69186H84.1952V1.93129H85.7497V4.69186Z" fill="#333333"/>
<path d="M88.2253 1.23954C88.2253 1.62092 88.5376 1.93135 88.9212 1.93135H90.634V4.69191H88.9212C88.5376 4.69191 88.2253 5.00233 88.2253 5.38371C88.2253 5.76509 88.5376 6.07551 88.9212 6.07551H92.1149C92.4985 6.07551 92.8108 5.76509 92.8108 5.38371V1.23954C92.8108 0.858166 92.4985 0.547741 92.1149 0.547741H88.9212C88.5376 0.545524 88.2253 0.855948 88.2253 1.23954Z" fill="#333333"/>
<path d="M86.7199 8.74072H82.2416V7.35712H86.7199C87.1035 7.35712 87.4158 7.66754 87.4158 8.04892C87.4158 8.4303 87.1035 8.74072 86.7199 8.74072Z" fill="#333333"/>
<path d="M86.7199 11.4791H82.2416V10.0955H86.7199C87.1035 10.0955 87.4158 10.4059 87.4158 10.7873C87.4158 11.1709 87.1035 11.4791 86.7199 11.4791Z" fill="#333333"/>
<path d="M92.6635 12.5457C90.6696 11.6455 89.3828 10.2086 88.4728 8.77183C88.4193 8.68757 88.0714 8.62105 88.0937 8.91152C88.2699 11.1333 89.6281 14.2597 92.0836 14.5657C93.2433 14.7098 94.2581 13.2663 92.6635 12.5457Z" fill="#333333"/>
<path d="M92.1172 6.80725H88.7762C88.3926 6.80725 88.0804 7.11768 88.0804 7.49905C88.0804 7.88043 88.3926 8.19086 88.7762 8.19086H90.5047C90.3441 10.2374 89.762 12.5435 86.4189 13.7896C85.9773 13.9537 86.2226 14.5501 86.6731 14.4703C91.0667 13.6965 92.5476 11.0955 92.8041 8.19086C92.813 8.09773 92.8152 7.79617 92.8152 7.49905C92.8152 7.11768 92.503 6.80725 92.1172 6.80725Z" fill="#333333"/>
<path d="M56.7431 26.1784C56.5132 25.9771 56.2318 25.8748 55.9126 25.8748C55.6621 25.8748 54.8317 25.9532 54.6601 26.946C54.3959 28.4677 52.982 29.5628 51.4447 29.4468C49.3171 29.283 48.5175 27.0211 48.4798 24.957C48.4454 23.1932 48.8572 21.8762 49.7014 21.037C50.5559 20.1909 51.5408 20.1465 51.8222 20.1533C53.5757 20.1943 54.087 21.4225 54.3959 22.156C54.4645 22.3198 54.5228 22.4596 54.5777 22.5518C55.0067 23.5207 55.6999 23.5207 55.9264 23.5207C56.2386 23.5207 56.5063 23.4115 56.7259 23.2C56.9456 22.985 57.0588 22.7326 57.0588 22.4528C57.0588 21.9615 56.8392 21.4327 56.4068 20.8868C55.9778 20.3444 55.3533 19.8838 54.5537 19.5153C53.7542 19.1469 52.8276 18.9626 51.805 18.9626C50.9677 18.9626 50.1647 19.0991 49.4235 19.3686C48.6788 19.6382 48.0234 20.0339 47.4709 20.5491C46.9184 21.0643 46.486 21.692 46.1874 22.4187C45.8923 23.142 45.7413 23.971 45.7413 24.8854C45.7413 25.4483 45.7997 25.9873 45.9198 26.4855C46.0365 26.987 46.2183 27.4646 46.4551 27.9081C46.6919 28.3482 46.9801 28.7542 47.3164 29.1125C47.6905 29.5048 48.1091 29.8289 48.5553 30.0677C49.0014 30.31 49.5058 30.4874 50.0549 30.6034C50.6005 30.716 51.2148 30.774 51.8771 30.774C52.7556 30.774 53.538 30.6443 54.2003 30.3919C54.8626 30.1394 55.4151 29.8016 55.844 29.3956C56.273 28.9896 56.5887 28.5666 56.7911 28.1435C56.9936 27.7171 57.0931 27.3145 57.0931 26.946C57.0965 26.639 56.9764 26.3831 56.7431 26.1784Z" fill="#333333"/>
<path d="M66.3757 23.2887C65.957 22.9032 65.4526 22.603 64.8658 22.3949C64.2824 22.1868 63.627 22.0844 62.9132 22.0844C62.2097 22.0844 61.5611 22.1868 60.9778 22.3915C60.3944 22.5962 59.8899 22.893 59.4781 23.2717C59.0663 23.6504 58.7472 24.1144 58.5242 24.6534C58.3045 25.1891 58.1913 25.7861 58.1913 26.4275C58.1913 27.0655 58.3011 27.6557 58.5173 28.1845C58.7335 28.7133 59.0595 29.1773 59.4781 29.5663C59.8968 29.9518 60.4012 30.2554 60.9743 30.4636C61.544 30.6717 62.196 30.774 62.9098 30.774C63.6304 30.774 64.2858 30.6717 64.8624 30.467C65.4423 30.2623 65.9467 29.962 66.362 29.5765C66.7806 29.191 67.1032 28.7236 67.3228 28.1879C67.5424 27.6523 67.6557 27.0621 67.6557 26.4275C67.6557 25.7895 67.5459 25.1993 67.3297 24.6671C67.1169 24.1383 66.7944 23.6743 66.3757 23.2887ZM65.1575 26.4309C65.1575 27.4033 64.9516 28.1709 64.5432 28.7168C64.1417 29.2558 63.5927 29.5287 62.9166 29.5287C62.4671 29.5287 62.0724 29.4059 61.743 29.1603C61.4101 28.9146 61.1528 28.553 60.9743 28.089C60.7925 27.6182 60.6998 27.0621 60.6998 26.4309C60.6998 25.7929 60.7925 25.23 60.9778 24.7524C61.1596 24.2815 61.4204 23.9233 61.7533 23.6811C62.0862 23.4423 62.4774 23.3229 62.9132 23.3229C63.5927 23.3229 64.1383 23.5958 64.5398 24.1314C64.9516 24.6739 65.1575 25.4484 65.1575 26.4309Z" fill="#333333"/>
<path d="M72.3603 20.2422C72.4564 20.2285 72.6074 20.2353 72.7721 20.3616L72.8407 20.4162C73.1084 20.6209 73.4104 20.8529 73.9972 20.7266C74.5497 20.6072 74.7968 20.1978 74.7968 19.9453C74.7968 19.3142 73.9903 18.9662 72.525 18.9662C71.7461 18.9662 71.1249 19.0583 70.6754 19.2357C70.2155 19.4199 69.8861 19.7168 69.6905 20.1193C69.5018 20.5151 69.4057 21.0541 69.4057 21.716V22.3847H68.4792C68.0365 22.3847 67.6761 22.7122 67.6761 23.1114C67.6761 23.514 68.0365 23.8381 68.4792 23.8381H69.4057V29.4162C69.4057 29.8529 69.5258 30.1907 69.7591 30.4227C69.9925 30.6547 70.291 30.7707 70.6411 30.7707C71.0083 30.7707 71.3137 30.6547 71.5505 30.4227C71.7838 30.1907 71.9039 29.8529 71.9039 29.4162V23.8415H72.9677C73.4104 23.8415 73.7707 23.514 73.7707 23.1148C73.7707 22.7122 73.4104 22.3881 72.9677 22.3881H71.9039V21.7638C71.9039 21.3748 71.9005 20.655 72.0686 20.4196C72.1373 20.324 72.2402 20.2592 72.3603 20.2422Z" fill="#333333"/>
<path d="M82.8166 27.782C82.8234 27.3623 82.8269 26.9802 82.8303 26.6357C82.8337 26.2911 82.8337 25.8748 82.8337 25.3836C82.8337 24.5955 82.7068 23.9541 82.4597 23.473C82.2092 22.9851 81.7768 22.6269 81.1694 22.4017C80.5757 22.1834 79.7487 22.0708 78.7192 22.0708C77.7961 22.0708 77.0103 22.1868 76.3892 22.4154C75.7612 22.644 75.2945 22.9408 74.9925 23.299C74.6905 23.6607 74.5361 24.0394 74.5361 24.4249C74.5361 24.8172 74.7283 25.2812 75.2602 25.4006C75.6514 25.4893 75.9774 25.4484 76.2279 25.2812C76.5642 25.056 76.6568 24.6705 76.6843 24.517C76.7975 23.821 77.1235 23.6607 77.4118 23.5174C77.7206 23.3638 78.1736 23.2888 78.7158 23.3024C79.3198 23.3161 79.9374 23.3638 80.2737 23.7459C80.4934 23.9984 80.5792 24.3737 80.5277 24.8991C80.1948 24.9844 79.8173 25.0595 79.481 25.1277C79.3335 25.1584 79.1962 25.1857 79.0727 25.213C78.6574 25.3017 78.1496 25.4006 77.5628 25.5098C76.9794 25.6156 76.6053 25.6872 76.4578 25.7179C75.7371 25.8578 75.1606 26.141 74.7488 26.5538C74.313 26.9905 74.1174 27.7615 74.1174 28.3381C74.1174 28.7782 74.2444 29.191 74.4983 29.5663C74.7488 29.9416 75.1126 30.2418 75.5793 30.4602C76.0426 30.6751 76.5848 30.7877 77.1922 30.7877C77.8545 30.7877 78.4618 30.6853 78.9972 30.4875C79.5085 30.2964 80.0438 30.0098 80.5894 29.6345C80.84 29.9928 81.0767 30.2691 81.3032 30.4636C81.5503 30.6785 81.8077 30.7877 82.065 30.7877C82.367 30.7877 82.6416 30.6922 82.8818 30.5045C83.1254 30.3135 83.2489 30.0951 83.2489 29.8563C83.2489 29.7232 83.1769 29.4435 83.0259 29.0034C82.8886 28.5735 82.8166 28.1675 82.8166 27.782ZM80.459 26.2501C80.4556 26.6118 80.4041 27.7854 79.9889 28.3927C79.8208 28.6383 79.1001 29.3343 77.9814 29.3036C77.5319 29.2934 77.1887 29.174 76.9348 28.942C76.6706 28.6997 76.5402 28.4166 76.5402 28.0754C76.5402 27.7479 76.6465 27.4988 76.8696 27.3146C77.0961 27.1269 77.3397 27.0007 77.5868 26.9359C77.8476 26.8677 78.3246 26.7619 78.9972 26.622C79.6149 26.4924 80.1056 26.3661 80.459 26.2501Z" fill="#333333"/>
<path d="M92.2878 27.1372C91.7594 27.0587 91.1279 27.3282 90.9975 27.9185C90.9907 27.956 90.9804 28.0003 90.9701 28.0481C90.8706 28.5769 90.6818 29.5595 88.9832 29.5595C87.1987 29.5595 86.7252 27.6216 86.7252 26.4753C86.7252 25.2983 87.0134 23.3229 88.9489 23.3229C90.3352 23.3229 90.6201 24.1042 90.8088 24.6228C90.8603 24.766 90.9049 24.8855 90.9632 24.9776C91.2927 25.4757 91.6804 25.5814 91.9447 25.5814C92.2604 25.5814 92.5315 25.4859 92.7545 25.3017C92.981 25.114 93.0943 24.8786 93.0943 24.6023C93.0943 24.343 92.9948 24.0598 92.8026 23.763C92.6138 23.473 92.3359 23.1933 91.979 22.9374C91.6221 22.6815 91.1829 22.4734 90.6715 22.313C90.1602 22.1527 89.594 22.0708 88.9832 22.0708C87.9983 22.0708 87.1404 22.255 86.4301 22.6201C85.7163 22.9885 85.1638 23.5139 84.7863 24.1861C84.4088 24.8547 84.2201 25.636 84.2201 26.506C84.2201 27.7922 84.6388 28.8362 85.4623 29.6038C86.2859 30.3715 87.439 30.7604 88.8974 30.7604C89.5803 30.7604 90.2048 30.6751 90.7539 30.5114C91.303 30.3442 91.7628 30.1224 92.1266 29.8495C92.4903 29.5765 92.7648 29.2831 92.9433 28.9761C93.1252 28.669 93.2144 28.3722 93.2144 28.0993C93.2144 27.8502 93.1252 27.2634 92.2878 27.1372Z" fill="#333333"/>
<path d="M99.4394 28.8772C99.1237 28.8772 98.959 29.0409 98.8012 29.2013C98.6364 29.3685 98.482 29.5254 98.1354 29.5254C97.7751 29.5254 97.5932 28.9181 97.5932 27.7172V23.8415H98.6433C99.086 23.8415 99.4463 23.514 99.4463 23.1148C99.4463 22.7122 99.086 22.3881 98.6433 22.3881H97.5932V20.9211C97.5932 20.5629 97.5726 20.2831 97.528 20.0852C97.48 19.8771 97.3702 19.6997 97.1986 19.553C96.9447 19.3415 96.6564 19.2357 96.3441 19.2357C96.1211 19.2357 95.9152 19.2835 95.7333 19.379C95.5514 19.4745 95.4073 19.6008 95.3112 19.7543C95.2117 19.901 95.1534 20.0818 95.1328 20.2865C95.1122 20.481 95.1019 20.7505 95.1019 21.0917V22.3915H94.5974C94.1548 22.3915 93.7944 22.7191 93.7944 23.1182C93.7944 23.5208 94.1548 23.8449 94.5974 23.8449H95.1019V27.8912C95.1019 28.5463 95.1636 29.0785 95.2803 29.4742C95.4039 29.8802 95.6647 30.2043 96.0559 30.4329C96.4436 30.6581 97.0167 30.7741 97.7579 30.7741C98.5369 30.7741 99.1443 30.682 99.563 30.4977C100.002 30.3067 100.225 30.0201 100.225 29.6482C100.222 29.4367 100.081 28.8772 99.4394 28.8772Z" fill="#333333"/>
<path d="M108.413 26.8744C108.169 26.5674 107.809 26.2979 107.339 26.0727C106.876 25.8509 106.272 25.6565 105.544 25.4995C104.937 25.3665 104.453 25.2539 104.11 25.1618C103.774 25.0731 103.499 24.9571 103.303 24.824C103.118 24.6978 103.029 24.5408 103.029 24.3464C103.029 24.1519 103.098 23.1898 104.422 23.1898C105.64 23.1898 105.833 23.8278 105.929 24.1348C105.935 24.1587 105.942 24.1826 105.949 24.1997C106.179 24.8786 106.948 25.1447 107.555 25.0048C108.166 24.8683 108.331 24.3634 108.331 24.0871C108.331 23.8517 108.242 23.6094 108.063 23.3638C107.888 23.125 107.634 22.9066 107.305 22.7122C106.975 22.5211 106.563 22.3642 106.076 22.2482C105.589 22.1356 105.036 22.0776 104.426 22.0776C103.647 22.0776 102.974 22.1936 102.421 22.4187C101.866 22.6473 101.437 22.9578 101.152 23.3399C100.864 23.7254 100.716 24.1417 100.716 24.5784C100.716 25.0696 100.877 25.4859 101.19 25.8236C101.498 26.1546 101.917 26.4241 102.432 26.622C102.936 26.8198 103.602 27.0109 104.408 27.1917C105.112 27.3418 105.62 27.5022 105.925 27.6694C106.231 27.8331 106.371 28.0822 106.351 28.4029C106.31 29.017 105.771 29.6413 104.827 29.6413C103.746 29.6413 103.022 29.1534 102.675 28.1879C102.494 27.6864 101.931 27.4374 101.303 27.5772C100.757 27.7001 100.613 28.1743 100.613 28.437C100.613 28.802 100.764 29.1705 101.059 29.5287C101.351 29.8836 101.811 30.1838 102.418 30.4158C103.022 30.6478 103.76 30.7672 104.604 30.7672C105.489 30.7672 106.251 30.658 106.869 30.4431C107.493 30.2247 107.974 29.9006 108.296 29.4776C108.619 29.0545 108.784 28.5359 108.784 27.9423C108.784 27.5499 108.66 27.1883 108.413 26.8744Z" fill="#333333"/>
</svg>
