<svg width="31" height="23" viewBox="0 0 31 23" fill="none" xmlns="http://www.w3.org/2000/svg">
<path d="M0.775676 1.82583C4.88465 5.31285 12.0945 11.4472 14.2136 13.3603C14.4984 13.6187 14.803 13.75 15.12 13.75C15.4363 13.75 15.7404 13.6199 16.0246 13.3633C18.1454 11.4484 25.3553 5.31343 29.4643 1.82583C29.7204 1.60903 29.759 1.22816 29.552 0.963309C29.0731 0.350987 28.3597 0 27.5943 0H2.64568C1.88025 0 1.16687 0.350987 0.687965 0.963309C0.480966 1.22816 0.519559 1.60903 0.775676 1.82583Z" fill="white"/>
<path d="M29.7265 3.71557C29.5055 3.61244 29.2452 3.64818 29.061 3.8058C26.3701 6.09164 22.8242 9.11169 20.1501 11.4169C20.0092 11.5376 19.9303 11.7151 19.9332 11.9015C19.9361 12.0872 20.0221 12.2624 20.1671 12.3784C22.6517 14.3725 26.3958 17.1153 29.0996 19.0648C29.2072 19.1428 29.3353 19.1826 29.4639 19.1826C29.5616 19.1826 29.6587 19.1598 29.7481 19.1135C29.9563 19.0068 30.0873 18.7918 30.0873 18.5574V4.28219C30.0884 4.03902 29.9469 3.81752 29.7265 3.71557Z" fill="white"/>
<path d="M1.13787 19.0643C3.8423 17.1148 7.58698 14.3719 10.071 12.3778C10.216 12.2618 10.3019 12.0866 10.3049 11.9009C10.3078 11.7145 10.2288 11.537 10.0879 11.4163C7.41389 9.11167 3.86744 6.09162 1.17646 3.80578C0.9911 3.64816 0.730891 3.61358 0.511028 3.71554C0.291165 3.8175 0.149658 4.03899 0.149658 4.28217V18.5574C0.149658 18.7918 0.28064 19.0068 0.488808 19.1135C0.578273 19.1598 0.675925 19.1826 0.772992 19.1826C0.901635 19.182 1.02969 19.1428 1.13787 19.0643Z" fill="white"/>
<path d="M29.3251 20.7652C26.7137 18.8931 21.9036 15.403 19.0325 13.0679C18.7986 12.8769 18.4601 12.8828 18.2297 13.082C17.666 13.5748 17.1947 13.9897 16.8602 14.2914C15.8334 15.2202 14.4078 15.2202 13.3786 14.2903C13.0453 13.9891 12.574 13.573 12.0103 13.0826C11.7817 12.8822 11.4426 12.8763 11.2081 13.0685C8.34635 15.396 3.531 18.8901 0.915446 20.7658C0.769845 20.8707 0.676286 21.0324 0.657575 21.2112C0.640032 21.3899 0.699091 21.5674 0.821302 21.6993C1.29319 22.2091 1.95863 22.5015 2.64511 22.5015H27.5943C28.2808 22.5015 28.9451 22.2091 29.4187 21.6993C29.5403 21.568 29.6 21.3905 29.5824 21.2117C29.5643 21.0324 29.4707 20.8701 29.3251 20.7652Z" fill="white"/>
</svg>
