<svg width="46" height="46" viewBox="0 0 46 46" fill="none" xmlns="http://www.w3.org/2000/svg">
<path d="M45.5184 6.31539C45.2801 4.88549 44.6843 3.45559 43.8502 2.38316C42.5395 0.834108 40.7521 0 38.8456 0H6.67286C4.76633 0 2.85979 0.834108 1.66821 2.38316C0.714947 3.45559 0.119158 4.88549 0 6.31539V13.1074C0 13.4649 -1.81999e-06 13.7032 0.119156 14.0607C1.90653 25.3807 13.3457 38.1306 18.112 43.1353C19.4228 44.446 21.091 45.161 22.8784 45.161C24.6658 45.161 26.334 44.446 27.6447 43.1353C32.5302 38.1306 43.8502 25.3807 45.6376 14.0607C45.6376 13.7032 45.7568 13.4649 45.7568 13.1074V6.31539H45.5184Z" fill="#323232"/>
<path d="M22.6401 36.2239C21.6868 36.2239 20.8527 35.8665 20.1378 35.1515C16.563 31.4576 4.64719 18.4693 2.97897 7.86427C2.74066 6.67268 3.09813 5.36196 3.93224 4.52785C4.64719 3.69374 5.60045 3.2171 6.55372 3.2171H38.7264C39.6797 3.2171 40.7521 3.69374 41.3479 4.52785C42.182 5.48112 42.4203 6.67268 42.3012 7.86427C40.633 18.5885 28.7171 31.4576 25.1424 35.1515C24.4275 35.8665 23.4742 36.2239 22.6401 36.2239Z" fill="url(#paint0_linear)"/>
<path d="M40.2756 9.17525C38.7265 18.5887 27.1682 30.3854 23.5935 33.7219C22.9977 34.3176 22.1636 34.3176 21.5678 33.7219C18.1122 30.3854 6.55383 18.5887 4.88562 9.17525C4.6473 8.10282 5.48141 7.0304 6.43467 7.0304H22.521H38.6074C39.6798 7.0304 40.3948 8.10282 40.2756 9.17525Z" fill="#02D88B"/>
<path d="M23.8314 35.2709C23.8314 34.5559 23.3548 34.0793 22.6398 34.0793C21.9249 34.0793 21.4482 34.5559 21.4482 35.2709C21.4482 35.9858 21.9249 36.4624 22.6398 36.4624C23.2356 36.4624 23.8314 35.9858 23.8314 35.2709Z" fill="white"/>
<path d="M5.24303 7.62621C5.24303 6.91126 4.76639 6.43463 4.05145 6.43463C3.3365 6.43463 2.85986 6.91126 2.85986 7.62621C2.85986 8.34116 3.3365 8.8178 4.05145 8.8178C4.76639 8.8178 5.24303 8.222 5.24303 7.62621Z" fill="white"/>
<path d="M42.3009 7.62621C42.3009 6.91126 41.8243 6.43463 41.1093 6.43463C40.3944 6.43463 39.9177 6.91126 39.9177 7.62621C39.9177 8.34116 40.3944 8.8178 41.1093 8.8178C41.8243 8.8178 42.3009 8.222 42.3009 7.62621Z" fill="white"/>
<path d="M15.8483 9.53266C15.2525 8.93687 14.4184 8.93687 13.8226 9.53266C13.2268 10.1284 13.2268 10.9626 13.8226 11.5583L20.4954 18.2312C20.7338 18.4695 21.0912 18.5887 21.4487 18.5887C21.8062 18.5887 22.1636 18.4695 22.402 18.2312C22.9978 17.6354 22.9978 16.8013 22.402 16.2055L15.8483 9.53266Z" fill="white"/>
<path d="M11.7968 15.0139C11.4394 14.6564 10.9627 14.6564 10.6053 15.0139C10.2478 15.3714 10.2478 15.848 10.6053 16.2055L12.9884 18.5886C13.1076 18.7078 13.3459 18.827 13.5842 18.827C13.8225 18.827 14.0609 18.7078 14.18 18.5886C14.5375 18.2312 14.5375 17.7545 14.18 17.3971L11.7968 15.0139Z" fill="white"/>
<path d="M23.3551 11.0817L20.9719 8.69853C20.6144 8.34105 20.1378 8.34105 19.7803 8.69853C19.4228 9.056 19.4228 9.53263 19.7803 9.89011L22.1635 12.2733C22.2826 12.3924 22.521 12.5116 22.7593 12.5116C22.9976 12.5116 23.2359 12.3924 23.3551 12.2733C23.7125 12.035 23.7125 11.4392 23.3551 11.0817Z" fill="white"/>
<defs>
<linearGradient id="paint0_linear" x1="22.6003" y1="35.1865" x2="22.6003" y2="-1.11025" gradientUnits="userSpaceOnUse">
<stop stop-color="#4FF695"/>
<stop offset="0.1113" stop-color="#57F69A"/>
<stop offset="0.286" stop-color="#6EF8A7"/>
<stop offset="0.5023" stop-color="#92F9BE"/>
<stop offset="0.7511" stop-color="#C5FCDC"/>
<stop offset="1" stop-color="white"/>
</linearGradient>
</defs>
</svg>
