<svg width="46" height="46" viewBox="0 0 46 46" fill="none" xmlns="http://www.w3.org/2000/svg">
<path d="M45.5185 6.31539C45.2801 4.88549 44.6843 3.45559 43.8502 2.38317C42.5395 0.834108 40.7521 0 38.8456 0H6.67286C4.76633 0 2.8598 0.834108 1.66822 2.38317C0.71495 3.45559 0.119158 4.88549 0 6.31539V13.1074C0 13.4649 2.66339e-08 13.7032 0.119158 14.0607C1.90653 25.3807 13.3457 38.1306 18.1121 43.1353C19.4228 44.446 21.091 45.161 22.8784 45.161C24.6658 45.161 26.334 44.446 27.6447 43.1353C32.5302 38.1306 43.8502 25.3807 45.6376 14.0607C45.6376 13.7032 45.7568 13.4649 45.7568 13.1074V6.31539H45.5185Z" fill="#323232"/>
<path d="M22.6401 36.2239C21.6868 36.2239 20.8527 35.8665 20.1378 35.1515C16.563 31.4576 4.64719 18.4694 2.97897 7.86427C2.74066 6.67268 3.09813 5.36196 3.93224 4.52785C4.64719 3.69374 5.60045 3.2171 6.55372 3.2171H38.7264C39.6797 3.2171 40.7521 3.69374 41.3479 4.52785C42.182 5.48112 42.4204 6.67268 42.3012 7.86427C40.633 18.5885 28.7172 31.4576 25.1424 35.1515C24.4275 35.8665 23.5933 36.2239 22.6401 36.2239Z" fill="url(#paint0_linear)"/>
<path d="M40.2756 9.17525C38.7266 18.5887 27.1682 30.3854 23.5935 33.7219C22.9977 34.3176 22.1636 34.3176 21.5678 33.7219C18.1122 30.3854 6.55383 18.5887 4.88562 9.17525C4.6473 8.10282 5.48141 7.0304 6.43467 7.0304H22.521H38.6074C39.6798 7.0304 40.5139 8.10282 40.2756 9.17525Z" fill="#FFB600"/>
<path d="M23.8314 35.2709C23.8314 34.5559 23.3548 34.0793 22.6398 34.0793C21.9249 34.0793 21.4482 34.5559 21.4482 35.2709C21.4482 35.9858 21.9249 36.4624 22.6398 36.4624C23.3548 36.4624 23.8314 35.9858 23.8314 35.2709Z" fill="white"/>
<path d="M5.24303 7.62603C5.24303 6.91108 4.7664 6.43445 4.05145 6.43445C3.3365 6.43445 2.85986 6.91108 2.85986 7.62603C2.85986 8.34098 3.3365 8.81761 4.05145 8.81761C4.7664 8.81761 5.24303 8.22182 5.24303 7.62603Z" fill="white"/>
<path d="M42.4203 7.62603C42.4203 6.91108 41.9436 6.43445 41.2287 6.43445C40.5137 6.43445 40.0371 6.91108 40.0371 7.62603C40.0371 8.34098 40.5137 8.81761 41.2287 8.81761C41.9436 8.81761 42.4203 8.22182 42.4203 7.62603Z" fill="white"/>
<path d="M15.9672 9.5329C15.3714 8.93711 14.5373 8.93711 13.9415 9.5329C13.3457 10.1287 13.3457 10.9628 13.9415 11.5586L20.6143 18.2315C20.8527 18.4698 21.2101 18.5889 21.5676 18.5889C21.9251 18.5889 22.2826 18.4698 22.5209 18.2315C23.1167 17.6357 23.1167 16.8015 22.5209 16.2058L15.9672 9.5329Z" fill="white"/>
<path d="M11.7968 15.0141C11.4394 14.6566 10.9627 14.6566 10.6053 15.0141C10.2478 15.3716 10.2478 15.8482 10.6053 16.2057L12.9884 18.5888C13.1076 18.708 13.3459 18.8272 13.5842 18.8272C13.8225 18.8272 14.0609 18.708 14.18 18.5888C14.5375 18.2314 14.5375 17.7547 14.18 17.3972L11.7968 15.0141Z" fill="white"/>
<path d="M23.3551 11.0817L20.9719 8.69853C20.6144 8.34105 20.1378 8.34105 19.7803 8.69853C19.4228 9.056 19.4228 9.53263 19.7803 9.89011L22.1635 12.2733C22.2826 12.3924 22.521 12.5116 22.7593 12.5116C22.9976 12.5116 23.2359 12.3924 23.3551 12.2733C23.7125 12.035 23.7125 11.4392 23.3551 11.0817Z" fill="white"/>
<defs>
<linearGradient id="paint0_linear" x1="22.645" y1="35.1865" x2="22.645" y2="-1.78099" gradientUnits="userSpaceOnUse">
<stop stop-color="#FFEA29"/>
<stop offset="0.0967848" stop-color="#FFEB31"/>
<stop offset="0.2488" stop-color="#FFED48"/>
<stop offset="0.4369" stop-color="#FFF16C"/>
<stop offset="0.6539" stop-color="#FFF69F"/>
<stop offset="0.8923" stop-color="#FFFCDF"/>
<stop offset="1" stop-color="white"/>
</linearGradient>
</defs>
</svg>
