<svg width="31" height="25" viewBox="0 0 31 25" fill="none" xmlns="http://www.w3.org/2000/svg">
<path d="M30.8333 2.95962C29.6867 3.46154 28.4649 3.79423 27.1911 3.95577C28.5016 3.175 29.5017 1.94808 29.9719 0.469231C28.7502 1.19615 27.4012 1.70962 25.9636 1.99615C24.8035 0.763462 23.1501 0 21.3463 0C17.8467 0 15.0293 2.83462 15.0293 6.30962C15.0293 6.80962 15.0717 7.29038 15.1758 7.74808C9.92062 7.49231 5.27057 4.97885 2.14677 1.15C1.60141 2.09423 1.28151 3.175 1.28151 4.33846C1.28151 6.52308 2.40885 8.45961 4.08927 9.58077C3.0737 9.56154 2.0774 9.26731 1.23333 8.80385C1.23333 8.82308 1.23333 8.84808 1.23333 8.87308C1.23333 11.9385 3.42443 14.4846 6.29771 15.0712C5.78318 15.2115 5.2224 15.2788 4.64042 15.2788C4.23573 15.2788 3.82719 15.2558 3.4437 15.1712C4.26271 17.6692 6.58677 19.5058 9.35021 19.5654C7.19958 21.2442 4.46891 22.2558 1.51276 22.2558C0.994375 22.2558 0.497187 22.2327 0 22.1692C2.80005 23.9712 6.11849 25 9.69708 25C21.329 25 27.6883 15.3846 27.6883 7.05C27.6883 6.77115 27.6787 6.50192 27.6652 6.23462C28.9197 5.34615 29.9739 4.23654 30.8333 2.95962Z" fill="white"/>
</svg>
