<svg width="368" height="39" viewBox="0 0 368 39" fill="none" xmlns="http://www.w3.org/2000/svg">
<path d="M19.5475 4.78563C27.4793 4.78563 33.9044 11.216 33.9044 19.1425C33.9044 27.069 27.4793 33.5047 19.5475 33.5047C11.6156 33.5047 5.1906 27.0743 5.1906 19.1425C5.1906 11.2107 11.621 4.78563 19.5475 4.78563ZM19.5475 0C16.9637 0 14.4594 0.509335 12.0931 1.50678C9.81175 2.4724 7.7638 3.85185 6.00765 5.60799C4.25151 7.36414 2.87206 9.41209 1.90645 11.6935C0.914303 14.0545 0.404968 16.564 0.404968 19.1425C0.404968 21.721 0.914303 24.2306 1.91175 26.5968C2.87737 28.8782 4.25681 30.9262 6.01296 32.6823C7.7691 34.4385 9.81706 35.8179 12.0985 36.7835C14.4594 37.781 16.969 38.2903 19.5528 38.2903C22.1366 38.2903 24.6408 37.781 27.0071 36.7835C29.2885 35.8179 31.3365 34.4385 33.0926 32.6823C34.8488 30.9262 36.2282 28.8782 37.1938 26.5968C38.1913 24.2359 38.7006 21.7263 38.7006 19.1425C38.7006 16.5587 38.1913 14.0545 37.1938 11.6882C36.2282 9.40678 34.8488 7.35883 33.0926 5.60269C31.3365 3.84654 29.2885 2.46709 27.0071 1.50148C24.6408 0.509335 22.1313 0 19.5475 0Z" fill="white"/>
<path d="M40.8175 30.4859H33.0607V25.7003H45.5978C45.6031 28.3424 43.4597 30.4859 40.8175 30.4859Z" fill="white"/>
<path d="M19.5475 14.3569C22.1897 14.3569 24.3331 16.5004 24.3331 19.1425C24.3331 21.7847 22.1897 23.9282 19.5475 23.9282C16.9053 23.9282 14.7619 21.7847 14.7619 19.1425C14.7619 16.5004 16.9053 14.3569 19.5475 14.3569ZM19.5475 9.57129C14.2685 9.57129 9.97626 13.8635 9.97626 19.1425C9.97626 24.4216 14.2685 28.7138 19.5475 28.7138C24.8266 28.7138 29.1188 24.4216 29.1188 19.1425C29.1188 13.8635 24.8266 9.57129 19.5475 9.57129Z" fill="white"/>
<path d="M43.3377 21.4875H27.0655V16.7018H48.1233C48.1233 19.344 45.9799 21.4875 43.3377 21.4875Z" fill="white"/>
<path d="M258.972 27.9815H230.004C229.298 27.9815 228.725 27.4085 228.725 26.7028C228.725 25.9972 229.298 25.4242 230.004 25.4242H258.972C259.678 25.4242 260.251 25.9972 260.251 26.7028C260.251 27.4085 259.678 27.9815 258.972 27.9815Z" fill="white"/>
<path d="M257.216 7.31626H231.765C231.06 7.31626 230.487 6.74326 230.487 6.03761C230.487 5.33197 231.06 4.75897 231.765 4.75897H257.216C257.922 4.75897 258.495 5.33197 258.495 6.03761C258.495 6.74326 257.922 7.31626 257.216 7.31626Z" fill="white"/>
<path d="M254.622 8.91329L234.344 8.95043C233.134 8.95043 232.158 9.91604 232.158 11.0992V25.7267H237.341V24.1085H251.634V25.7267H256.818V11.0567C256.818 9.8736 255.836 8.90799 254.622 8.91329ZM251.634 21.5459H237.341V19.8905H251.634V21.5459ZM251.634 17.3332H237.341V15.6779H251.634V17.3332ZM237.341 13.1206V11.4653H251.634V13.1206H237.341Z" fill="white"/>
<path d="M237.034 27.7268C235.58 29.3821 233.394 31.3028 230.922 32.4116C230.354 32.6663 230.677 33.4409 231.537 33.5788C235.071 34.1518 238.843 32.5761 240.594 30.9844C241.819 29.8649 237.453 27.2493 237.034 27.7268Z" fill="white"/>
<path d="M243.315 4.1024L240.8 9.38145H245.496L247.528 5.98057C248.356 4.59051 247.294 2.87681 245.607 2.87681H245.326C244.456 2.87151 243.671 3.35431 243.315 4.1024Z" fill="white"/>
<path d="M254.271 34.0935C252.712 33.6213 251.019 31.4885 247.395 29.743C246.35 29.2389 247.236 28.3741 247.958 28.3317C250.727 28.1778 256.351 29.3557 257.651 31.0057C258.643 32.2737 257.343 35.022 254.271 34.0935Z" fill="white"/>
<path d="M270.284 4.25612L268.411 8.85075L273.016 8.77116L274.454 6.12368C275.244 4.67526 274.199 2.9032 272.56 2.9032H272.284C271.403 2.9032 270.613 3.43906 270.284 4.25612Z" fill="white"/>
<path d="M277.414 8.34558H267.254C266.352 8.34558 265.62 9.08306 265.62 9.99031V31.1277C265.62 32.035 266.352 32.7724 267.254 32.7724H277.414C278.316 32.7724 279.048 32.035 279.048 31.1277V9.99031C279.048 9.08306 278.316 8.34558 277.414 8.34558ZM273.971 29.7907H270.708V21.5034H273.971V29.7907ZM270.703 18.5217V11.3273H273.966V18.527H270.703V18.5217Z" fill="white"/>
<path d="M283.447 9.56586V10.107C283.447 10.7808 283.988 11.3273 284.656 11.3273H290.026C290.508 29.3557 288.689 31.1542 288.105 31.0534L284.227 30.7669C283.298 30.698 282.592 31.6954 283.049 32.5178C283.144 32.6876 283.282 32.8414 283.473 32.9528C283.473 32.9528 289.203 33.9025 290.158 33.9503C292.18 34.0511 294.084 33.6903 294.472 31.6848C295.135 28.2521 295.729 20.8137 295.336 9.52342C295.315 8.86553 294.779 8.34558 294.127 8.34558H284.656C283.988 8.34558 283.447 8.89206 283.447 9.56586Z" fill="white"/>
<path d="M285.245 3.10358C284.099 3.10358 283.107 3.89411 282.842 5.01358C282.12 8.04307 280.343 13.2001 279.436 15.317C278.995 16.3463 280.921 16.8132 281.622 16.1341C283.951 13.8792 285.855 9.80982 287.442 6.7432C288.301 5.08786 287.102 3.10358 285.245 3.10358Z" fill="white"/>
<path d="M284.683 24.3207C283.802 23.3445 283.76 20.2832 282.253 17.5508C281.924 16.9566 282.545 16.5374 283.112 16.8292C285.606 18.1132 288.492 21.148 288.667 22.9413C288.8 24.3154 286.407 26.2413 284.683 24.3207Z" fill="white"/>
<path d="M342.821 4.25612L340.949 8.85075L345.554 8.77116L346.992 6.12368C347.782 4.67526 346.737 2.9032 345.098 2.9032H344.822C343.946 2.9032 343.156 3.43906 342.821 4.25612Z" fill="white"/>
<path d="M349.957 8.34564H339.797C338.895 8.34564 338.163 9.08312 338.163 9.99037V31.1278C338.163 32.035 338.895 32.7725 339.797 32.7725H349.957C350.859 32.7725 351.591 32.035 351.591 31.1278V9.99037C351.591 9.08312 350.859 8.34564 349.957 8.34564ZM346.509 29.7908H343.246V21.5035H346.509V29.7908ZM343.246 18.5217V11.3274H346.509V18.527H343.246V18.5217Z" fill="white"/>
<path d="M355.985 9.56592V10.1071C355.985 10.7809 356.526 11.3274 357.194 11.3274H362.564C363.046 29.3557 361.227 31.1543 360.643 31.0535L356.765 30.767C355.836 30.698 355.13 31.6955 355.587 32.5178C355.682 32.6876 355.82 32.8415 356.011 32.9529C356.011 32.9529 361.741 33.9026 362.696 33.9503C364.718 34.0512 366.622 33.6904 367.01 31.6849C367.673 28.2522 368.267 20.8137 367.874 9.52348C367.853 8.86559 367.317 8.34564 366.665 8.34564H357.194C356.531 8.34564 355.985 8.89212 355.985 9.56592Z" fill="white"/>
<path d="M357.788 3.10358C356.642 3.10358 355.65 3.89411 355.385 5.01358C354.664 8.04307 352.886 13.2001 351.979 15.317C351.539 16.3463 353.464 16.8132 354.165 16.1341C356.494 13.8792 358.399 9.80982 359.985 6.7432C360.839 5.08786 359.645 3.10358 357.788 3.10358Z" fill="white"/>
<path d="M357.221 24.3207C356.34 23.3445 356.298 20.2832 354.791 17.5508C354.462 16.9566 355.083 16.5374 355.65 16.8292C358.144 18.1132 361.03 21.148 361.205 22.9413C361.343 24.3154 358.95 26.2413 357.221 24.3207Z" fill="white"/>
<path d="M306.218 2.80658C305.072 2.80658 304.08 3.5918 303.815 4.70067C303.093 7.70893 301.316 15.2959 300.409 17.3969C299.968 18.4209 301.565 19.3865 302.595 18.2087C304.727 15.7522 307.194 11.4387 308.415 6.41968C308.85 4.61578 308.075 2.80658 306.218 2.80658Z" fill="white"/>
<path d="M305.465 33.77C304.319 33.77 303.385 32.8415 303.385 31.6902V8.53668H307.539V31.6902C307.545 32.8362 306.611 33.77 305.465 33.77Z" fill="white"/>
<path d="M319.355 3.97375H311.046C310.134 3.97375 309.396 4.71123 309.396 5.62379V31.6848C309.396 32.8308 310.325 33.7645 311.476 33.7645C312.622 33.7645 313.556 32.8361 313.556 31.6848V15.7999H319.365C320.278 15.7999 321.015 15.0624 321.015 14.1498V5.62909C321.01 4.71654 320.267 3.97375 319.355 3.97375ZM316.856 12.8394H313.55V6.93426H316.856V12.8394Z" fill="white"/>
<path d="M322.114 5.45401C322.114 6.27107 322.777 6.93426 323.594 6.93426H327.234V12.8394H323.594C322.777 12.8394 322.114 13.5026 322.114 14.3196C322.114 15.1367 322.777 15.7999 323.594 15.7999H330.385C331.202 15.7999 331.865 15.1367 331.865 14.3196V5.45401C331.865 4.63695 331.202 3.97375 330.385 3.97375H323.594C322.777 3.97375 322.114 4.63695 322.114 5.45401Z" fill="white"/>
<path d="M318.914 21.4929H309.396V18.5323H318.914C319.731 18.5323 320.395 19.1955 320.395 20.0126C320.395 20.8297 319.731 21.4929 318.914 21.4929Z" fill="white"/>
<path d="M318.914 27.3501H309.396V24.3896H318.914C319.731 24.3896 320.395 25.0528 320.395 25.8698C320.395 26.6869 319.731 27.3501 318.914 27.3501Z" fill="white"/>
<path d="M331.547 29.6263C327.308 27.7004 324.575 24.6285 322.639 21.5565C322.528 21.3761 321.785 21.2329 321.833 21.8536C322.209 26.6021 325.095 33.2871 330.311 33.9397C332.778 34.2528 334.937 31.1702 331.547 29.6263Z" fill="white"/>
<path d="M330.385 17.3597H323.281C322.464 17.3597 321.801 18.0229 321.801 18.84C321.801 19.6571 322.464 20.3203 323.281 20.3203H326.952C326.608 24.692 325.377 29.6262 318.273 32.2896C317.333 32.6398 317.853 33.9184 318.814 33.7487C328.152 32.0986 331.298 26.5331 331.844 20.3256C331.86 20.1293 331.865 19.482 331.865 18.8453C331.865 18.0229 331.202 17.3597 330.385 17.3597Z" fill="white"/>
<path d="M89.2681 22.4054C88.6951 21.9014 88.0054 21.6467 87.2096 21.6467C86.5888 21.6467 84.5356 21.8377 84.1111 24.3154C83.4532 28.0983 79.9568 30.8307 76.1581 30.5442C70.8949 30.1409 68.9159 24.5064 68.8204 19.3706C68.7356 14.9829 69.7542 11.6988 71.8446 9.61367C73.9615 7.50736 76.3968 7.39594 77.0918 7.41186C81.4318 7.51267 82.6998 10.5687 83.4585 12.3991C83.6283 12.8023 83.7716 13.1525 83.9095 13.3859C84.9759 15.8 86.6843 15.8 87.2467 15.8C88.016 15.8 88.6845 15.5294 89.2257 14.9988C89.7722 14.463 90.048 13.8369 90.048 13.1366C90.048 11.911 89.5069 10.6005 88.4405 9.23698C87.3793 7.88406 85.8354 6.73805 83.8564 5.82019C81.8722 4.90763 79.5855 4.44604 77.0547 4.44604C74.9802 4.44604 72.9959 4.7856 71.1602 5.4541C69.3192 6.12261 67.6957 7.11475 66.3268 8.39339C64.958 9.67734 63.8863 11.2425 63.1541 13.0464C62.4219 14.845 62.0505 16.9141 62.0505 19.1849C62.0505 20.5856 62.1991 21.9279 62.4909 23.1694C62.7827 24.4162 63.2284 25.61 63.812 26.7082C64.3956 27.8065 65.1118 28.8145 65.9395 29.7059C66.868 30.6874 67.9026 31.4885 69.0061 32.0881C70.115 32.6876 71.3618 33.1333 72.7147 33.4198C74.0623 33.701 75.5797 33.8442 77.2245 33.8442C79.3998 33.8442 81.3363 33.5259 82.9757 32.8945C84.6151 32.2632 85.984 31.4302 87.0451 30.4115C88.1009 29.3982 88.8914 28.3476 89.3848 27.2918C89.8836 26.2307 90.1329 25.228 90.1329 24.3101C90.1382 23.5514 89.8464 22.9094 89.2681 22.4054Z" fill="white"/>
<path d="M113.106 15.211C112.071 14.2507 110.819 13.5026 109.371 12.9879C107.928 12.4733 106.304 12.2133 104.538 12.2133C102.797 12.2133 101.19 12.4733 99.7466 12.9826C98.2982 13.492 97.0514 14.2294 96.0327 15.1791C95.014 16.1235 94.2182 17.2801 93.677 18.6171C93.1306 19.9488 92.8547 21.4344 92.8547 23.0367C92.8547 24.6231 93.1253 26.0927 93.6611 27.4085C94.2023 28.7243 94.9981 29.8809 96.038 30.8465C97.0779 31.8121 98.3194 32.5602 99.736 33.0801C101.147 33.5948 102.76 33.8548 104.527 33.8548C106.304 33.8548 107.933 33.5948 109.36 33.0854C110.793 32.5761 112.04 31.828 113.074 30.873C114.109 29.9127 114.91 28.7508 115.451 27.4191C115.998 26.0874 116.268 24.6124 116.268 23.042C116.268 21.4556 115.998 19.9807 115.462 18.6649C114.936 17.3279 114.141 16.1713 113.106 15.211ZM110.082 23.0314C110.082 25.4507 109.573 27.3607 108.564 28.719C107.572 30.0613 106.214 30.7404 104.538 30.7404C103.429 30.7404 102.452 30.4327 101.635 29.8225C100.813 29.2124 100.171 28.3157 99.7307 27.1591C99.285 25.9919 99.0569 24.6018 99.0569 23.0261C99.0569 21.4397 99.2903 20.0337 99.7413 18.8506C100.192 17.6781 100.84 16.7814 101.667 16.1872C102.49 15.593 103.461 15.2906 104.543 15.2906C106.219 15.2906 107.578 15.9644 108.57 17.3014C109.573 18.6596 110.082 20.5855 110.082 23.0314Z" fill="white"/>
<path d="M127.909 7.62939C128.147 7.59225 128.519 7.61347 128.927 7.9212L129.102 8.05383C129.766 8.56317 130.508 9.14148 131.962 8.82845C133.331 8.53134 133.946 7.51267 133.946 6.8813C133.946 5.31085 131.952 4.44604 128.328 4.44604C126.402 4.44604 124.863 4.67418 123.749 5.11985C122.614 5.57613 121.791 6.31891 121.314 7.32167C120.842 8.3085 120.608 9.64551 120.608 11.3008V12.9668H118.316C117.223 12.9668 116.332 13.7785 116.332 14.7813C116.332 15.7787 117.223 16.5958 118.316 16.5958H120.608V30.4805C120.608 31.5628 120.9 32.4064 121.484 32.9794C122.062 33.5577 122.799 33.8495 123.664 33.8495C124.577 33.8495 125.33 33.5577 125.914 32.9794C126.492 32.4011 126.789 31.5575 126.789 30.4805V16.5905H129.421C130.514 16.5905 131.405 15.7787 131.405 14.776C131.405 13.7785 130.514 12.9615 129.421 12.9615H126.789V11.407C126.789 10.4413 126.784 8.64806 127.198 8.05914C127.357 7.831 127.617 7.67183 127.909 7.62939Z" fill="white"/>
<path d="M153.784 26.3953C153.8 25.3501 153.811 24.4004 153.816 23.5462C153.821 22.692 153.827 21.6521 153.827 20.4265C153.827 18.4634 153.514 16.8665 152.903 15.6674C152.283 14.4524 151.211 13.5558 149.715 12.9987C148.245 12.4522 146.203 12.171 143.651 12.171C141.364 12.171 139.422 12.4575 137.883 13.0252C136.334 13.5982 135.172 14.3357 134.429 15.227C133.681 16.129 133.305 17.0681 133.305 18.0284C133.305 19.0046 133.777 20.1559 135.103 20.4583C136.074 20.6759 136.881 20.575 137.496 20.1559C138.324 19.5935 138.562 18.6385 138.621 18.2512C138.902 16.5216 139.708 16.1184 140.425 15.7629C141.194 15.3809 142.314 15.1952 143.651 15.227C145.147 15.2642 146.675 15.3809 147.508 16.3306C148.054 16.9566 148.261 17.8957 148.134 19.2009C147.311 19.4131 146.378 19.5988 145.545 19.7686C145.179 19.8429 144.839 19.9119 144.531 19.9755C143.502 20.1984 142.245 20.4424 140.796 20.713C139.348 20.9783 138.43 21.1534 138.058 21.2329C136.276 21.5831 134.854 22.2834 133.825 23.3127C132.748 24.3951 132.265 26.321 132.265 27.7535C132.265 28.8464 132.583 29.8757 133.209 30.8095C133.835 31.7433 134.732 32.4861 135.883 33.0325C137.029 33.5737 138.371 33.8443 139.878 33.8443C141.518 33.8443 143.019 33.5949 144.346 33.0962C145.614 32.6187 146.935 31.9078 148.282 30.974C148.898 31.86 149.492 32.555 150.049 33.0378C150.664 33.5737 151.296 33.8443 151.938 33.8443C152.686 33.8443 153.365 33.6055 153.954 33.144C154.559 32.6665 154.867 32.1253 154.867 31.5257C154.867 31.1968 154.686 30.5018 154.315 29.4035C153.965 28.3636 153.784 27.3556 153.784 26.3953ZM147.953 22.5806C147.943 23.4825 147.821 26.4059 146.791 27.918C146.378 28.5281 144.59 30.2577 141.82 30.1887C140.706 30.1569 139.862 29.8651 139.231 29.2921C138.573 28.6926 138.255 27.9869 138.255 27.1327C138.255 26.3157 138.52 25.6949 139.067 25.244C139.629 24.7771 140.228 24.4587 140.844 24.2996C141.491 24.1298 142.669 23.8698 144.335 23.5143C145.868 23.1907 147.083 22.8777 147.953 22.5806Z" fill="white"/>
<path d="M177.224 24.793C175.914 24.5967 174.359 25.2705 174.03 26.7401C174.009 26.8356 173.988 26.9417 173.966 27.0638C173.717 28.3795 173.25 30.8254 169.054 30.8254C164.639 30.8254 163.461 25.9973 163.461 23.1483C163.461 20.2143 164.178 15.296 168.969 15.296C172.401 15.296 173.102 17.2431 173.569 18.5271C173.696 18.8826 173.807 19.185 173.956 19.4078C174.773 20.6493 175.728 20.9093 176.386 20.9093C177.166 20.9093 177.84 20.6759 178.386 20.2143C178.943 19.7421 179.23 19.1585 179.23 18.474C179.23 17.8268 178.986 17.1264 178.508 16.389C178.036 15.6674 177.351 14.9724 176.465 14.3357C175.585 13.699 174.497 13.1791 173.229 12.7759C171.966 12.3779 170.56 12.171 169.048 12.171C166.613 12.171 164.485 12.6326 162.729 13.5399C160.963 14.4524 159.599 15.7629 158.665 17.4341C157.737 19.1001 157.265 21.0472 157.265 23.2119C157.265 26.4165 158.299 29.0109 160.336 30.9209C162.368 32.8309 165.234 33.7965 168.841 33.7965C170.534 33.7965 172.078 33.5896 173.431 33.1758C174.789 32.7619 175.93 32.2102 176.831 31.5257C177.728 30.8466 178.413 30.1145 178.853 29.3558C179.299 28.5865 179.527 27.8543 179.527 27.1699C179.521 26.565 179.299 25.1007 177.224 24.793Z" fill="white"/>
<path d="M194.923 29.1275C194.138 29.1275 193.735 29.536 193.348 29.9339C192.939 30.3477 192.557 30.7404 191.703 30.7404C190.812 30.7404 190.361 29.2283 190.361 26.2412V16.5851H192.955C194.048 16.5851 194.939 15.7733 194.939 14.7706C194.939 13.7731 194.048 12.9561 192.955 12.9561H190.361V9.30053C190.361 8.4092 190.308 7.71417 190.196 7.22075C190.079 6.7008 189.804 6.25513 189.379 5.89966C188.753 5.37441 188.042 5.10913 187.262 5.10913C186.71 5.10913 186.201 5.23116 185.75 5.4646C185.299 5.70336 184.944 6.02169 184.705 6.39839C184.461 6.76978 184.312 7.21014 184.259 7.71947C184.211 8.20228 184.185 8.87609 184.185 9.71967V12.9561H182.933C181.84 12.9561 180.949 13.7678 180.949 14.7706C180.949 15.768 181.84 16.5851 182.933 16.5851H184.185V26.6604C184.185 28.2945 184.333 29.6156 184.625 30.6024C184.928 31.6158 185.575 32.4222 186.546 32.9899C187.506 33.5523 188.923 33.8388 190.759 33.8388C192.684 33.8388 194.186 33.6054 195.226 33.1544C196.313 32.6769 196.871 31.9659 196.871 31.0428C196.865 30.5122 196.515 29.1275 194.923 29.1275Z" fill="white"/>
<path d="M217.132 24.1402C216.533 23.3762 215.636 22.7024 214.48 22.1454C213.334 21.5936 211.838 21.1108 210.039 20.7128C208.537 20.3839 207.338 20.1027 206.489 19.8746C205.651 19.6517 204.983 19.3705 204.495 19.031C204.038 18.7179 203.815 18.3306 203.815 17.8425C203.815 17.3597 203.98 14.9669 207.264 14.9669C210.278 14.9669 210.76 16.5586 210.989 17.3226C211.01 17.3863 211.026 17.4393 211.042 17.4871C211.609 19.1795 213.509 19.8374 215.016 19.4926C216.528 19.153 216.931 17.8956 216.931 17.2112C216.931 16.6222 216.708 16.0174 216.268 15.4126C215.838 14.8184 215.201 14.2719 214.384 13.7891C213.572 13.3116 212.548 12.9243 211.339 12.6378C210.134 12.3566 208.76 12.2133 207.259 12.2133C205.333 12.2133 203.667 12.4998 202.298 13.0622C200.924 13.6299 199.863 14.3992 199.152 15.3542C198.436 16.3145 198.075 17.3544 198.075 18.4368C198.075 19.657 198.473 20.6969 199.253 21.5352C200.017 22.3576 201.051 23.0261 202.325 23.5248C203.577 24.0182 205.221 24.4957 207.216 24.9414C208.957 25.3181 210.219 25.716 210.967 26.1298C211.721 26.5437 212.076 27.1538 212.023 27.955C211.917 29.4883 210.591 31.0375 208.256 31.0375C205.588 31.0375 203.794 29.8225 202.929 27.4244C202.484 26.1776 201.083 25.5515 199.529 25.9017C198.181 26.2041 197.82 27.3926 197.82 28.0451C197.82 28.9577 198.192 29.8703 198.924 30.7616C199.651 31.6423 200.781 32.3904 202.287 32.974C203.784 33.5523 205.609 33.8494 207.699 33.8494C209.885 33.8494 211.774 33.5789 213.307 33.043C214.856 32.5018 216.045 31.6954 216.841 30.6396C217.642 29.5838 218.045 28.2998 218.045 26.8196C218.056 25.8221 217.743 24.9202 217.132 24.1402Z" fill="white"/>
</svg>
