<svg width="103" height="29" viewBox="0 0 103 29" fill="none" xmlns="http://www.w3.org/2000/svg">
<path d="M14.5846 3.625C20.6262 3.625 25.5231 8.4935 25.5231 14.5C25.5231 20.5065 20.6262 25.375 14.5846 25.375C8.54308 25.375 3.64616 20.5065 3.64616 14.5C3.64616 8.4935 8.54308 3.625 14.5846 3.625ZM14.5846 0C12.6163 0 10.706 0.384355 8.90694 1.14051C7.16851 1.87153 5.60948 2.91658 4.2728 4.2455C2.93613 5.57441 1.88246 7.12942 1.14716 8.85525C0.386599 10.6464 0 12.5456 0 14.5C0 16.4544 0.386599 18.3561 1.14716 20.1473C1.88246 21.8756 2.9336 23.4256 4.27028 24.7545C5.60695 26.0834 7.16851 27.131 8.90441 27.8595C10.706 28.6156 12.6163 29 14.5821 29C16.5505 29 18.4607 28.6156 20.2598 27.8595C21.9982 27.1285 23.5573 26.0834 24.894 24.7545C26.2306 23.4256 27.2894 21.8731 28.0246 20.1473C28.7852 18.3561 29.1718 16.4569 29.1718 14.5025C29.1718 12.5481 28.7852 10.6464 28.0246 8.85776C27.2894 7.12942 26.2382 5.57943 24.9015 4.25052C23.5649 2.9216 22.0008 1.87153 20.2649 1.14051C18.4633 0.384355 16.553 0 14.5846 0Z" fill="#333333"/>
<path d="M30.789 23.0939H24.8813V19.4664H34.4351C34.4351 21.4686 32.8028 23.0939 30.789 23.0939Z" fill="#333333"/>
<path d="M14.5848 10.875C16.5987 10.875 18.231 12.4978 18.231 14.5C18.231 16.5022 16.5987 18.125 14.5848 18.125C12.5709 18.125 10.9386 16.5022 10.9386 14.5C10.9386 12.4978 12.5709 10.875 14.5848 10.875ZM14.5848 7.25C10.5647 7.25 7.29248 10.5032 7.29248 14.5C7.29248 18.4968 10.5647 21.75 14.5848 21.75C18.6049 21.75 21.8771 18.4968 21.8771 14.5C21.8796 10.5032 18.6075 7.25 14.5848 7.25Z" fill="#333333"/>
<path d="M32.7095 16.2786H20.3105V12.6511H36.3557C36.3557 14.6533 34.7234 16.2786 32.7095 16.2786Z" fill="#333333"/>
<path d="M55.2628 10.9874H42.513C42.2022 10.9874 41.9497 10.7364 41.9497 10.4274C41.9497 10.1183 42.2022 9.86731 42.513 9.86731H55.2628C55.5737 9.86731 55.8262 10.1183 55.8262 10.4274C55.8241 10.7364 55.5716 10.9874 55.2628 10.9874Z" fill="#333333"/>
<path d="M54.4887 1.94359H43.287C42.9761 1.94359 42.7236 1.6926 42.7236 1.38354C42.7236 1.07447 42.9761 0.823486 43.287 0.823486H54.4887C54.7996 0.823486 55.052 1.07447 55.052 1.38354C55.0499 1.69468 54.7996 1.94359 54.4887 1.94359Z" fill="#333333"/>
<path d="M53.3478 2.64259L44.4223 2.65918C43.8902 2.65918 43.4604 3.08026 43.4604 3.59882V10H45.7409V9.29268H52.0334V10H54.3138V3.58223C54.3138 3.06159 53.8819 2.64051 53.3478 2.64259ZM52.0334 8.17258H45.7409V7.44658H52.0334V8.17258ZM52.0334 6.32855H45.7409V5.60256H52.0334V6.32855ZM45.7409 4.48453V3.75854H52.0334V4.48453H45.7409Z" fill="#333333"/>
<path d="M45.6072 10.8754C44.9667 11.5993 44.0049 12.4394 42.9179 12.9248C42.6675 13.0368 42.8115 13.3749 43.1891 13.435C44.7435 13.686 46.4042 12.9953 47.1741 12.2983C47.7124 11.813 45.7908 10.6659 45.6072 10.8754Z" fill="#333333"/>
<path d="M48.3694 0.537235L47.2637 2.84797H49.3292L50.2221 1.35864C50.5873 0.750884 50.1199 0 49.3772 0H49.252C48.8723 0 48.5259 0.209501 48.3694 0.537235Z" fill="#333333"/>
<path d="M53.193 13.6632C52.5066 13.4557 51.7617 12.5223 50.1657 11.759C49.7067 11.5391 50.0947 11.1595 50.4139 11.1429C51.6345 11.0745 54.1089 11.591 54.6806 12.3128C55.1187 12.8666 54.5429 14.0697 53.193 13.6632Z" fill="#333333"/>
<path d="M59.9218 0.589105L59.0977 2.60114L61.1235 2.56588L61.7578 1.40844C62.1041 0.773715 61.6451 1.36561e-05 60.9232 1.36561e-05H60.8022C60.4142 -0.00206061 60.0678 0.232331 59.9218 0.589105Z" fill="#333333"/>
<path d="M63.0595 2.38123H58.5884C58.192 2.38123 57.8687 2.70274 57.8687 3.101V12.3501C57.8687 12.7484 58.19 13.0699 58.5884 13.0699H63.0595C63.456 13.0699 63.7793 12.7484 63.7793 12.3501V3.101C63.7793 2.70274 63.458 2.38123 63.0595 2.38123ZM61.5427 11.7652H60.1052V8.13731H61.5427V11.7652ZM60.1073 6.83467V3.68386H61.5448V6.8326H60.1073V6.83467Z" fill="#333333"/>
<path d="M65.7153 2.91445V3.15091C65.7153 3.44546 65.9532 3.684 66.2473 3.684H68.6112C68.824 11.5745 68.0228 12.3586 67.7641 12.3171L66.0575 12.1926C65.6485 12.1636 65.3377 12.5992 65.54 12.958C65.5818 13.0327 65.6444 13.0991 65.7278 13.1489C65.7278 13.1489 68.2502 13.5658 68.6717 13.5865C69.5626 13.6301 70.4013 13.4725 70.5703 12.5971C70.8624 11.0933 71.1232 7.83875 70.9521 2.89993C70.9417 2.61161 70.7059 2.38344 70.4201 2.38344H66.2515C65.9532 2.38136 65.7153 2.6199 65.7153 2.91445Z" fill="#333333"/>
<path d="M66.5083 0.0871582C66.0055 0.0871582 65.5674 0.433561 65.4505 0.923087C65.1313 2.24854 64.3489 4.50534 63.9504 5.43047C63.7564 5.88058 64.6035 6.08593 64.9123 5.78724C65.9367 4.79989 66.7754 3.02017 67.4743 1.67812C67.852 0.954201 67.3241 0.0871582 66.5083 0.0871582Z" fill="#333333"/>
<path d="M66.2577 9.37154C65.8717 8.94424 65.8509 7.60634 65.1895 6.40742C65.0455 6.14813 65.3168 5.96352 65.5671 6.09213C66.6646 6.65425 67.9352 7.98178 68.0124 8.76793C68.0729 9.36739 67.0192 10.2116 66.2577 9.37154Z" fill="#333333"/>
<path d="M90.9628 0.589105L90.1387 2.60114L92.1645 2.56588L92.7988 1.40844C93.1451 0.773715 92.6861 1.36561e-05 91.9642 1.36561e-05H91.8432C91.4573 -0.00206061 91.1088 0.232331 90.9628 0.589105Z" fill="#333333"/>
<path d="M94.103 2.38123H89.6319C89.2355 2.38123 88.9121 2.70274 88.9121 3.101V12.3501C88.9121 12.7484 89.2334 13.0699 89.6319 13.0699H94.103C94.4994 13.0699 94.8228 12.7484 94.8228 12.3501V3.101C94.8207 2.70274 94.4994 2.38123 94.103 2.38123ZM92.5862 11.7652H91.1487V8.13731H92.5862V11.7652ZM91.1487 6.83467V3.68386H92.5862V6.8326H91.1487V6.83467Z" fill="#333333"/>
<path d="M96.7568 2.91445V3.15091C96.7568 3.44546 96.9947 3.684 97.2888 3.684H99.6527C99.8655 11.5745 99.0643 12.3586 98.8056 12.3171L97.099 12.1926C96.69 12.1636 96.3792 12.5992 96.5816 12.958C96.6233 13.0327 96.6859 13.0991 96.7693 13.1489C96.7693 13.1489 99.2918 13.5658 99.7132 13.5865C100.604 13.6301 101.443 13.4725 101.612 12.5971C101.904 11.0933 102.165 7.83875 101.994 2.89993C101.983 2.61161 101.747 2.38344 101.462 2.38344H97.293C96.9947 2.38136 96.7568 2.6199 96.7568 2.91445Z" fill="#333333"/>
<path d="M97.5498 0.0871582C97.047 0.0871582 96.6089 0.433561 96.492 0.923087C96.1728 2.24854 95.3904 4.50534 94.9919 5.43047C94.7979 5.88058 95.645 6.08593 95.9538 5.78724C96.9782 4.79989 97.8169 3.02017 98.5158 1.67812C98.8935 0.954201 98.3677 0.0871582 97.5498 0.0871582Z" fill="#333333"/>
<path d="M97.2992 9.37154C96.9132 8.94424 96.8924 7.60634 96.231 6.40742C96.0871 6.14813 96.3583 5.96352 96.6086 6.09213C97.7061 6.65425 98.9767 7.98178 99.0539 8.76793C99.1144 9.36739 98.0607 10.2116 97.2992 9.37154Z" fill="#333333"/>
<path d="M75.5377 0C75.0349 0 74.5967 0.342254 74.4799 0.829706C74.1607 2.14686 73.3783 5.46569 72.9798 6.38459C72.7858 6.83263 73.491 7.25578 73.9416 6.73929C74.8805 5.66482 75.9654 3.77724 76.5037 1.58059C76.6956 0.792369 76.3535 0 75.5377 0Z" fill="#333333"/>
<path d="M75.2058 13.5491C74.7009 13.5491 74.292 13.1426 74.292 12.6406V2.50781H76.1217V12.6385C76.1197 13.1405 75.7107 13.5491 75.2058 13.5491Z" fill="#333333"/>
<path d="M81.3208 0.510254H77.6612C77.2586 0.510254 76.9331 0.833839 76.9331 1.23417V12.6385C76.9331 13.1405 77.342 13.547 77.8469 13.547C78.3518 13.547 78.7608 13.1405 78.7608 12.6385V5.68554H81.3166C81.7193 5.68554 82.0447 5.36196 82.0447 4.96163V1.23417C82.0468 0.835914 81.7213 0.510254 81.3208 0.510254ZM80.2171 4.38913H78.7629V1.80667H80.2171V4.38913Z" fill="#333333"/>
<path d="M82.5332 1.15951C82.5332 1.51628 82.8253 1.80668 83.1842 1.80668H84.7865V4.38914H83.1842C82.8253 4.38914 82.5332 4.67954 82.5332 5.03631C82.5332 5.39309 82.8253 5.68348 83.1842 5.68348H86.1718C86.5307 5.68348 86.8228 5.39309 86.8228 5.03631V1.15951C86.8228 0.802737 86.5307 0.51234 86.1718 0.51234H83.1842C82.8253 0.510266 82.5332 0.800663 82.5332 1.15951Z" fill="#333333"/>
<path d="M81.125 8.17679H76.9355V6.88245H81.125C81.4838 6.88245 81.7759 7.17284 81.7759 7.52962C81.7759 7.88639 81.4838 8.17679 81.125 8.17679Z" fill="#333333"/>
<path d="M81.125 10.7386H76.9355V9.44421H81.125C81.4838 9.44421 81.7759 9.73461 81.7759 10.0914C81.7759 10.4502 81.4838 10.7386 81.125 10.7386Z" fill="#333333"/>
<path d="M86.6851 11.7362C84.8199 10.8941 83.6161 9.54996 82.7648 8.20584C82.7148 8.12702 82.3893 8.06479 82.4101 8.33652C82.575 10.4149 83.8456 13.3396 86.1427 13.6259C87.2276 13.7607 88.1769 12.4104 86.6851 11.7362Z" fill="#333333"/>
<path d="M86.1736 6.36804H83.0482C82.6894 6.36804 82.3973 6.65844 82.3973 7.01521C82.3973 7.37199 82.6894 7.66238 83.0482 7.66238H84.6652C84.515 9.57693 83.9704 11.7342 80.8429 12.8999C80.4298 13.0534 80.6593 13.6114 81.0808 13.5367C85.1909 12.8128 86.5763 10.3797 86.8162 7.66238C86.8246 7.57526 86.8267 7.29316 86.8267 7.01521C86.8267 6.65844 86.5346 6.36804 86.1736 6.36804Z" fill="#333333"/>
<path d="M53.0825 24.4895C52.8674 24.3012 52.6042 24.2054 52.3056 24.2054C52.0713 24.2054 51.2944 24.2788 51.1339 25.2076C50.8867 26.631 49.5641 27.6555 48.1259 27.547C46.1356 27.3938 45.3876 25.2778 45.3523 23.3469C45.3202 21.6968 45.7054 20.4649 46.4951 19.6797C47.2945 18.8882 48.2158 18.8467 48.479 18.8531C50.1195 18.8914 50.5978 20.0404 50.8867 20.7266C50.9509 20.8798 51.0055 21.0106 51.0568 21.0968C51.4581 22.0032 52.1066 22.0032 52.3185 22.0032C52.6106 22.0032 52.861 21.9011 53.0664 21.7032C53.2719 21.5021 53.3778 21.266 53.3778 21.0043C53.3778 20.5447 53.1724 20.05 52.7679 19.5393C52.3666 19.0319 51.7824 18.601 51.0344 18.2563C50.2864 17.9116 49.4196 17.7393 48.463 17.7393C47.6797 17.7393 46.9285 17.8669 46.2351 18.1191C45.5385 18.3712 44.9253 18.7414 44.4085 19.2233C43.8916 19.7053 43.4871 20.2925 43.2079 20.9723C42.9318 21.649 42.7905 22.4245 42.7905 23.2799C42.7905 23.8065 42.8451 24.3107 42.9575 24.7767C43.0666 25.2459 43.2367 25.6927 43.4583 26.1076C43.6798 26.5193 43.9494 26.8991 44.264 27.2342C44.6139 27.6013 45.0056 27.9045 45.4229 28.1279C45.8402 28.3545 46.3121 28.5205 46.8258 28.629C47.3362 28.7343 47.9108 28.7886 48.5304 28.7886C49.3522 28.7886 50.0842 28.6673 50.7037 28.4311C51.3233 28.1949 51.8401 27.8789 52.2414 27.4991C52.6427 27.1193 52.938 26.7236 53.1274 26.3278C53.3168 25.9289 53.4099 25.5523 53.4099 25.2076C53.4131 24.9203 53.3008 24.681 53.0825 24.4895Z" fill="#333333"/>
<path d="M62.0939 21.7862C61.7022 21.4255 61.2303 21.1447 60.6814 20.95C60.1356 20.7553 59.5225 20.6595 58.8548 20.6595C58.1967 20.6595 57.5899 20.7553 57.0442 20.9468C56.4985 21.1383 56.0266 21.416 55.6413 21.7702C55.2561 22.1245 54.9576 22.5585 54.7489 23.0628C54.5434 23.5639 54.4375 24.1224 54.4375 24.7224C54.4375 25.3193 54.5402 25.8714 54.7425 26.3661C54.9447 26.8608 55.2497 27.2949 55.6413 27.6587C56.033 28.0194 56.5049 28.3034 57.041 28.4981C57.5739 28.6928 58.1838 28.7885 58.8516 28.7885C59.5257 28.7885 60.1389 28.6928 60.6782 28.5013C61.2207 28.3098 61.6926 28.0289 62.081 27.6683C62.4727 27.3076 62.7744 26.8704 62.9799 26.3693C63.1854 25.8682 63.2913 25.3161 63.2913 24.7224C63.2913 24.1256 63.1886 23.5735 62.9863 23.0756C62.7873 22.5809 62.4855 22.1468 62.0939 21.7862ZM60.9543 24.7256C60.9543 25.6352 60.7616 26.3533 60.3796 26.864C60.004 27.3683 59.4904 27.6236 58.858 27.6236C58.4374 27.6236 58.0683 27.5087 57.7601 27.2789C57.4487 27.0491 57.2079 26.7108 57.041 26.2767C56.8708 25.8363 56.7842 25.3161 56.7842 24.7256C56.7842 24.1288 56.8709 23.6022 57.0442 23.1554C57.2143 22.7149 57.4583 22.3798 57.7697 22.1532C58.0811 21.9298 58.4471 21.8181 58.8548 21.8181C59.4904 21.8181 60.0008 22.0734 60.3764 22.5745C60.7616 23.082 60.9543 23.8065 60.9543 24.7256Z" fill="#333333"/>
<path d="M67.6925 18.9362C67.7824 18.9234 67.9236 18.9298 68.0777 19.0479L68.1419 19.099C68.3923 19.2905 68.6748 19.5075 69.2238 19.3894C69.7406 19.2777 69.9718 18.8947 69.9718 18.6585C69.9718 18.0681 69.2174 17.7426 67.8466 17.7426C67.1179 17.7426 66.5368 17.8287 66.1163 17.9947C65.6861 18.167 65.3779 18.4447 65.195 18.8213C65.0184 19.1915 64.9285 19.6958 64.9285 20.315V20.9405H64.0617C63.6476 20.9405 63.3105 21.2469 63.3105 21.6203C63.3105 21.9969 63.6476 22.3001 64.0617 22.3001H64.9285V27.5184C64.9285 27.9269 65.0409 28.2429 65.2592 28.4599C65.4775 28.6769 65.7567 28.7855 66.0842 28.7855C66.4277 28.7855 66.7134 28.6769 66.9349 28.4599C67.1532 28.2429 67.2655 27.9269 67.2655 27.5184V22.3033H68.2607C68.6748 22.3033 69.0119 21.9969 69.0119 21.6235C69.0119 21.2469 68.6748 20.9437 68.2607 20.9437H67.2655V20.3597C67.2655 19.9958 67.2623 19.3224 67.4196 19.1022C67.4838 19.0128 67.5802 18.9522 67.6925 18.9362Z" fill="#333333"/>
<path d="M77.4738 25.9896C77.4803 25.597 77.4835 25.2396 77.4867 24.9172C77.4899 24.5948 77.4899 24.2055 77.4899 23.7459C77.4899 23.0086 77.3711 22.4086 77.14 21.9586C76.9056 21.5022 76.5011 21.1671 75.9329 20.9564C75.3776 20.7522 74.6039 20.6469 73.6408 20.6469C72.7773 20.6469 72.0422 20.7554 71.4611 20.9692C70.8736 21.183 70.437 21.4607 70.1545 21.7958C69.872 22.1341 69.7276 22.4884 69.7276 22.849C69.7276 23.2161 69.9074 23.6501 70.4049 23.7618C70.7709 23.8448 71.0759 23.8065 71.3102 23.6501C71.6248 23.4395 71.7115 23.0788 71.7372 22.9352C71.8431 22.2841 72.1481 22.1341 72.4177 22.0001C72.7067 21.8565 73.1304 21.7862 73.6376 21.799C74.2026 21.8118 74.7805 21.8565 75.0951 22.2139C75.3005 22.4501 75.3808 22.8012 75.3326 23.2927C75.0212 23.3725 74.6681 23.4427 74.3535 23.5065C74.2155 23.5352 74.0871 23.5608 73.9715 23.5863C73.5831 23.6693 73.1079 23.7618 72.559 23.864C72.0133 23.9629 71.6633 24.0299 71.5253 24.0587C70.8512 24.1895 70.3118 24.4544 69.9266 24.8406C69.5189 25.2491 69.3359 25.9704 69.3359 26.5098C69.3359 26.9215 69.4547 27.3077 69.6923 27.6588C69.9266 28.0099 70.2669 28.2907 70.7035 28.495C71.1369 28.696 71.6441 28.8014 72.2123 28.8014C72.8319 28.8014 73.4001 28.7056 73.9009 28.5205C74.3792 28.3418 74.88 28.0737 75.3904 27.7226C75.6248 28.0577 75.8463 28.3162 76.0581 28.4982C76.2893 28.6992 76.53 28.8014 76.7708 28.8014C77.0533 28.8014 77.3101 28.712 77.5348 28.5365C77.7628 28.3577 77.8783 28.1535 77.8783 27.9301C77.8783 27.8056 77.8109 27.5439 77.6697 27.1322C77.5413 26.73 77.4738 26.3502 77.4738 25.9896ZM75.2684 24.5566C75.2652 24.8949 75.2171 25.9928 74.8286 26.5609C74.6713 26.7907 73.9972 27.4417 72.9506 27.413C72.5301 27.4034 72.2091 27.2917 71.9715 27.0747C71.7243 26.8481 71.6024 26.5832 71.6024 26.2641C71.6024 25.9577 71.7019 25.7247 71.9105 25.5523C72.1224 25.3768 72.3503 25.2587 72.5815 25.1981C72.8254 25.1342 73.2717 25.0353 73.9009 24.9044C74.4787 24.7832 74.9378 24.6651 75.2684 24.5566Z" fill="#333333"/>
<path d="M86.3339 25.3864C85.8395 25.313 85.2488 25.5651 85.1268 26.1172C85.1204 26.1523 85.1108 26.1938 85.1011 26.2385C85.008 26.7332 84.8315 27.6524 83.2424 27.6524C81.5731 27.6524 81.1301 25.8396 81.1301 24.7672C81.1301 23.6661 81.3997 21.8182 83.2103 21.8182C84.5072 21.8182 84.7737 22.549 84.9503 23.0342C84.9984 23.1682 85.0401 23.2799 85.0947 23.3661C85.4029 23.8321 85.7657 23.931 86.0128 23.931C86.3082 23.931 86.5618 23.8416 86.7705 23.6693C86.9823 23.4937 87.0883 23.2735 87.0883 23.015C87.0883 22.7725 86.9952 22.5075 86.8154 22.2299C86.6388 21.9586 86.3788 21.6969 86.0449 21.4575C85.7111 21.2181 85.3002 21.0235 84.8219 20.8735C84.3435 20.7234 83.8138 20.6469 83.2424 20.6469C82.3211 20.6469 81.5185 20.8192 80.854 21.1607C80.1863 21.5054 79.6694 21.9969 79.3163 22.6256C78.9632 23.2512 78.7866 23.9821 78.7866 24.7959C78.7866 25.9992 79.1783 26.9758 79.9487 27.6939C80.7192 28.412 81.7978 28.7758 83.1622 28.7758C83.801 28.7758 84.3853 28.696 84.8989 28.5428C85.4125 28.3865 85.8427 28.179 86.183 27.9237C86.5233 27.6684 86.7801 27.3939 86.947 27.1066C87.1172 26.8194 87.2006 26.5417 87.2006 26.2864C87.2006 26.0534 87.1172 25.5045 86.3339 25.3864Z" fill="#333333"/>
<path d="M93.024 27.0142C92.7286 27.0142 92.5745 27.1674 92.4269 27.3174C92.2728 27.4738 92.1283 27.6206 91.8041 27.6206C91.467 27.6206 91.2969 27.0525 91.2969 25.929V22.3034H92.2792C92.6933 22.3034 93.0304 21.997 93.0304 21.6236C93.0304 21.247 92.6933 20.9438 92.2792 20.9438H91.2969V19.5714C91.2969 19.2363 91.2776 18.9746 91.2359 18.7895C91.1909 18.5948 91.0882 18.4288 90.9277 18.2916C90.6901 18.0937 90.4205 17.9948 90.1284 17.9948C89.9197 17.9948 89.7271 18.0394 89.5569 18.1288C89.3868 18.2182 89.252 18.3363 89.1621 18.4799C89.069 18.6171 89.0144 18.7863 88.9951 18.9778C88.9759 19.1597 88.9663 19.4118 88.9663 19.731V20.947H88.4944C88.0802 20.947 87.7432 21.2534 87.7432 21.6268C87.7432 22.0034 88.0802 22.3066 88.4944 22.3066H88.9663V26.0918C88.9663 26.7046 89.024 27.2025 89.1332 27.5727C89.2488 27.9525 89.4927 28.2557 89.8587 28.4696C90.2215 28.6802 90.7576 28.7887 91.451 28.7887C92.1797 28.7887 92.7479 28.7025 93.1395 28.5302C93.5505 28.3515 93.7591 28.0834 93.7591 27.7355C93.7559 27.5376 93.6243 27.0142 93.024 27.0142Z" fill="#333333"/>
<path d="M101.419 25.1406C101.191 24.8533 100.854 24.6012 100.414 24.3906C99.9807 24.1831 99.4157 24.0012 98.7352 23.8544C98.1669 23.7299 97.7143 23.6246 97.3933 23.5384C97.0787 23.4554 96.8219 23.3469 96.6389 23.2224C96.4655 23.1043 96.3821 22.9575 96.3821 22.7756C96.3821 22.5937 96.4463 21.6937 97.6854 21.6937C98.825 21.6937 99.0048 22.2905 99.0947 22.5777C99.1011 22.6001 99.1075 22.6224 99.114 22.6384C99.329 23.2735 100.048 23.5224 100.616 23.3916C101.188 23.2639 101.342 22.7916 101.342 22.533C101.342 22.3128 101.258 22.0862 101.091 21.8564C100.928 21.633 100.69 21.4288 100.382 21.2468C100.074 21.0681 99.6886 20.9213 99.2327 20.8128C98.7769 20.7075 98.26 20.6532 97.6886 20.6532C96.9599 20.6532 96.3307 20.7617 95.8139 20.9724C95.2938 21.1862 94.8925 21.4766 94.6261 21.8341C94.3564 22.1947 94.2184 22.5841 94.2184 22.9926C94.2184 23.4522 94.3693 23.8416 94.6614 24.1576C94.9503 24.4672 95.3419 24.7193 95.8235 24.9044C96.2954 25.0895 96.9182 25.2682 97.6726 25.4374C98.3307 25.5778 98.8058 25.7278 99.0915 25.8842C99.3772 26.0374 99.5088 26.2704 99.4896 26.5704C99.451 27.1449 98.947 27.729 98.0642 27.729C97.053 27.729 96.3756 27.2726 96.0514 26.3693C95.8813 25.9002 95.3548 25.6672 94.7673 25.798C94.2569 25.9129 94.1221 26.3566 94.1221 26.6023C94.1221 26.9438 94.2633 27.2885 94.5394 27.6236C94.8123 27.9556 95.2424 28.2364 95.8106 28.4535C96.3756 28.6705 97.0658 28.7822 97.8556 28.7822C98.6838 28.7822 99.3965 28.6801 99.9743 28.479C100.559 28.2747 101.008 27.9715 101.31 27.5758C101.612 27.18 101.766 26.6949 101.766 26.1395C101.766 25.7725 101.65 25.4342 101.419 25.1406Z" fill="#333333"/>
</svg>
