<svg width="231" height="24" viewBox="0 0 231 24" fill="none" xmlns="http://www.w3.org/2000/svg">
<path d="M12.8633 2.99958C17.8245 2.99958 21.8433 7.03007 21.8433 11.9983C21.8433 16.9666 17.8245 21.0004 12.8633 21.0004C7.90203 21.0004 3.88324 16.9699 3.88324 11.9983C3.88324 7.02674 7.90535 2.99958 12.8633 2.99958ZM12.8633 0C11.2471 0 9.68078 0.319246 8.2007 0.944437C6.77371 1.54967 5.49275 2.4143 4.3943 3.51503C3.29585 4.61577 2.43303 5.89941 1.82905 7.32936C1.20848 8.8092 0.889893 10.3822 0.889893 11.9983C0.889893 13.6145 1.20848 15.1875 1.83237 16.6706C2.43635 18.1006 3.29917 19.3842 4.39762 20.485C5.49606 21.5857 6.77703 22.4503 8.20402 23.0556C9.68078 23.6808 11.2505 24 12.8666 24C14.4827 24 16.0491 23.6808 17.5292 23.0556C18.9562 22.4503 20.2371 21.5857 21.3356 20.485C22.434 19.3842 23.2969 18.1006 23.9008 16.6706C24.5247 15.1908 24.8433 13.6178 24.8433 11.9983C24.8433 10.3788 24.5247 8.8092 23.9008 7.32604C23.2969 5.89608 22.434 4.61244 21.3356 3.51171C20.2371 2.41097 18.9562 1.54635 17.5292 0.941111C16.0491 0.319246 14.4794 0 12.8633 0Z" fill="#333333"/>
<path d="M26.1674 19.1082H21.3157V16.1086H29.1574C29.1608 17.7647 27.8201 19.1082 26.1674 19.1082Z" fill="#333333"/>
<path d="M12.8634 8.99873C14.5161 8.99873 15.8568 10.3422 15.8568 11.9983C15.8568 13.6544 14.5161 14.9979 12.8634 14.9979C11.2108 14.9979 9.87006 13.6544 9.87006 11.9983C9.87006 10.3422 11.2108 8.99873 12.8634 8.99873ZM12.8634 5.99915C9.56143 5.99915 6.87671 8.68946 6.87671 11.9983C6.87671 15.3072 9.56143 17.9975 12.8634 17.9975C16.1654 17.9975 18.8501 15.3072 18.8501 11.9983C18.8501 8.68946 16.1654 5.99915 12.8634 5.99915Z" fill="#333333"/>
<path d="M27.7437 13.4682H17.5657V10.4686H30.7371C30.7371 12.1247 29.3964 13.4682 27.7437 13.4682Z" fill="#333333"/>
<path d="M162.62 17.5386H144.501C144.06 17.5386 143.701 17.1794 143.701 16.7371C143.701 16.2948 144.06 15.9357 144.501 15.9357H162.62C163.062 15.9357 163.42 16.2948 163.42 16.7371C163.42 17.1794 163.062 17.5386 162.62 17.5386Z" fill="#333333"/>
<path d="M161.524 4.58579H145.605C145.164 4.58579 144.805 4.22664 144.805 3.78435C144.805 3.34206 145.164 2.98291 145.605 2.98291H161.524C161.965 2.98291 162.324 3.34206 162.324 3.78435C162.324 4.22664 161.965 4.58579 161.524 4.58579Z" fill="#333333"/>
<path d="M159.899 5.58681L147.216 5.61008C146.459 5.61008 145.848 6.21532 145.848 6.9569V16.1253H149.091V15.111H158.031V16.1253H161.273V6.9303C161.273 6.18872 160.659 5.58348 159.899 5.58681ZM158.031 13.5048H149.091V12.4672H158.031V13.5048ZM158.031 10.8643H149.091V9.82679H158.031V10.8643ZM149.091 8.22391V7.18636H158.031V8.22391H149.091Z" fill="#333333"/>
<path d="M148.9 17.379C147.991 18.4166 146.624 19.6204 145.077 20.3154C144.722 20.475 144.925 20.9605 145.462 21.047C147.673 21.4062 150.032 20.4185 151.127 19.4208C151.894 18.7192 149.163 17.0797 148.9 17.379Z" fill="#333333"/>
<path d="M152.827 2.57131L151.254 5.88017H154.191L155.462 3.74853C155.98 2.87726 155.316 1.80313 154.261 1.80313H154.085C153.541 1.7998 153.05 2.10242 152.827 2.57131Z" fill="#333333"/>
<path d="M159.68 21.3694C158.704 21.0735 157.646 19.7366 155.379 18.6426C154.726 18.3266 155.28 17.7846 155.731 17.758C157.463 17.6615 160.981 18.3998 161.794 19.434C162.415 20.2288 161.602 21.9514 159.68 21.3694Z" fill="#333333"/>
<path d="M169.696 2.6677L168.524 5.54757L171.405 5.49769L172.304 3.83827C172.798 2.93041 172.145 1.8197 171.119 1.8197H170.947C170.396 1.8197 169.901 2.15558 169.696 2.6677Z" fill="#333333"/>
<path d="M174.156 5.23096H167.801C167.237 5.23096 166.779 5.6932 166.779 6.26186V19.5106C166.779 20.0792 167.237 20.5415 167.801 20.5415H174.156C174.72 20.5415 175.178 20.0792 175.178 19.5106V6.26186C175.178 5.6932 174.72 5.23096 174.156 5.23096ZM172.002 18.6726H169.961V13.4782H172.002V18.6726ZM169.958 11.6092V7.09988H171.999V11.6126H169.958V11.6092Z" fill="#333333"/>
<path d="M177.929 5.99582V6.33502C177.929 6.75735 178.267 7.09988 178.685 7.09988H182.044C182.346 18.3999 181.208 19.5272 180.843 19.464L178.417 19.2844C177.836 19.2412 177.395 19.8664 177.68 20.3819C177.74 20.4883 177.826 20.5847 177.945 20.6545C177.945 20.6545 181.529 21.2498 182.127 21.2797C183.391 21.3429 184.583 21.1168 184.825 19.8598C185.24 17.7082 185.611 13.0458 185.366 5.96921C185.352 5.55685 185.017 5.23096 184.609 5.23096H178.685C178.267 5.23096 177.929 5.57348 177.929 5.99582Z" fill="#333333"/>
<path d="M179.054 1.94531C178.337 1.94531 177.717 2.44081 177.551 3.14249C177.099 5.04134 175.988 8.27371 175.42 9.60057C175.145 10.2457 176.349 10.5384 176.787 10.1127C178.244 8.69937 179.436 6.14872 180.428 4.22659C180.965 3.18904 180.215 1.94531 179.054 1.94531Z" fill="#333333"/>
<path d="M178.702 15.244C178.151 14.6321 178.125 12.7133 177.182 11.0006C176.977 10.6282 177.365 10.3655 177.72 10.5484C179.28 11.3531 181.085 13.2553 181.194 14.3793C181.277 15.2406 179.781 16.4478 178.702 15.244Z" fill="#333333"/>
<path d="M215.067 2.6677L213.896 5.54757L216.776 5.49769L217.675 3.83827C218.17 2.93041 217.516 1.8197 216.491 1.8197H216.318C215.771 1.8197 215.276 2.15558 215.067 2.6677Z" fill="#333333"/>
<path d="M219.531 5.23096H213.175C212.611 5.23096 212.153 5.6932 212.153 6.26186V19.5106C212.153 20.0792 212.611 20.5415 213.175 20.5415H219.531C220.095 20.5415 220.553 20.0792 220.553 19.5106V6.26186C220.553 5.6932 220.095 5.23096 219.531 5.23096ZM217.373 18.6726H215.333V13.4782H217.373V18.6726ZM215.333 11.6092V7.09988H217.373V11.6126H215.333V11.6092Z" fill="#333333"/>
<path d="M223.3 5.99582V6.33502C223.3 6.75735 223.639 7.09988 224.057 7.09988H227.415C227.717 18.3999 226.579 19.5272 226.214 19.464L223.788 19.2844C223.208 19.2412 222.766 19.8664 223.052 20.3819C223.111 20.4883 223.198 20.5847 223.317 20.6545C223.317 20.6545 226.901 21.2498 227.498 21.2797C228.763 21.3429 229.954 21.1168 230.196 19.8598C230.611 17.7082 230.983 13.0458 230.737 5.96921C230.724 5.55685 230.389 5.23096 229.981 5.23096H224.057C223.642 5.23096 223.3 5.57348 223.3 5.99582Z" fill="#333333"/>
<path d="M224.429 1.94531C223.712 1.94531 223.091 2.44081 222.925 3.14249C222.474 5.04134 221.362 8.27371 220.795 9.60057C220.519 10.2457 221.724 10.5384 222.162 10.1127C223.619 8.69937 224.81 6.14872 225.803 4.22659C226.337 3.18904 225.59 1.94531 224.429 1.94531Z" fill="#333333"/>
<path d="M224.074 15.244C223.523 14.6321 223.496 12.7133 222.554 11.0006C222.348 10.6282 222.736 10.3655 223.091 10.5484C224.651 11.3531 226.456 13.2553 226.566 14.3793C226.652 15.2406 225.156 16.4478 224.074 15.244Z" fill="#333333"/>
<path d="M192.172 1.75916C191.455 1.75916 190.835 2.25133 190.669 2.94635C190.218 4.8319 189.106 9.58734 188.538 10.9042C188.263 11.546 189.262 12.1513 189.906 11.413C191.24 9.87333 192.783 7.16971 193.546 4.02381C193.818 2.89314 193.334 1.75916 192.172 1.75916Z" fill="#333333"/>
<path d="M191.701 21.1667C190.984 21.1667 190.4 20.5847 190.4 19.8631V5.35071H192.999V19.8631C193.002 20.5814 192.418 21.1667 191.701 21.1667Z" fill="#333333"/>
<path d="M200.389 2.49072H195.192C194.621 2.49072 194.16 2.95296 194.16 3.52495V19.8597C194.16 20.578 194.741 21.1633 195.461 21.1633C196.178 21.1633 196.762 20.5813 196.762 19.8597V9.90322H200.396C200.967 9.90322 201.428 9.44098 201.428 8.869V3.52827C201.425 2.95629 200.96 2.49072 200.389 2.49072ZM198.826 8.0476H196.759V4.34634H198.826V8.0476Z" fill="#333333"/>
<path d="M202.115 3.41853C202.115 3.93066 202.53 4.34634 203.041 4.34634H205.317V8.0476H203.041C202.53 8.0476 202.115 8.46329 202.115 8.97541C202.115 9.48754 202.53 9.90322 203.041 9.90322H207.288C207.799 9.90322 208.214 9.48754 208.214 8.97541V3.41853C208.214 2.90641 207.799 2.49072 207.288 2.49072H203.041C202.53 2.49072 202.115 2.90641 202.115 3.41853Z" fill="#333333"/>
<path d="M200.114 13.4716H194.16V11.616H200.114C200.625 11.616 201.04 12.0317 201.04 12.5438C201.04 13.0559 200.625 13.4716 200.114 13.4716Z" fill="#333333"/>
<path d="M200.114 17.1428H194.16V15.2872H200.114C200.625 15.2872 201.04 15.7029 201.04 16.215C201.04 16.7272 200.625 17.1428 200.114 17.1428Z" fill="#333333"/>
<path d="M208.015 18.5695C205.364 17.3623 203.655 15.4369 202.443 13.5114C202.374 13.3983 201.909 13.3086 201.939 13.6976C202.174 16.6739 203.98 20.8641 207.242 21.2731C208.785 21.4693 210.136 19.5372 208.015 18.5695Z" fill="#333333"/>
<path d="M207.288 10.881H202.845C202.334 10.881 201.919 11.2967 201.919 11.8088C201.919 12.3209 202.334 12.7366 202.845 12.7366H205.141C204.925 15.4768 204.156 18.5695 199.712 20.2389C199.125 20.4584 199.45 21.2598 200.051 21.1534C205.891 20.1192 207.859 16.6307 208.201 12.7399C208.211 12.6169 208.214 12.2112 208.214 11.8121C208.214 11.2967 207.799 10.881 207.288 10.881Z" fill="#333333"/>
<path d="M56.4727 14.0435C56.1143 13.7276 55.6829 13.568 55.1851 13.568C54.7969 13.568 53.5126 13.6877 53.2471 15.2407C52.8356 17.6117 50.6486 19.3244 48.2726 19.1448C44.9805 18.892 43.7427 15.3604 43.683 12.1413C43.6299 9.39115 44.267 7.33268 45.5746 6.02576C46.8987 4.70555 48.4219 4.63571 48.8566 4.64569C51.5712 4.70887 52.3643 6.62435 52.8389 7.77164C52.9451 8.02438 53.0347 8.24386 53.121 8.39018C53.788 9.90327 54.8566 9.90327 55.2084 9.90327C55.6895 9.90327 56.1077 9.73367 56.4462 9.40113C56.788 9.06525 56.9606 8.67285 56.9606 8.23388C56.9606 7.4657 56.6221 6.6443 55.955 5.78965C55.2913 4.94166 54.3256 4.22335 53.0878 3.64804C51.8466 3.07606 50.4163 2.78674 48.8334 2.78674C47.5358 2.78674 46.2947 2.99957 45.1465 3.41858C43.9949 3.8376 42.9794 4.45946 42.1233 5.2609C41.2671 6.06567 40.5967 7.04668 40.1387 8.17735C39.6808 9.30469 39.4485 10.6016 39.4485 12.0249C39.4485 12.9029 39.5414 13.7442 39.7239 14.5224C39.9064 15.3039 40.1852 16.0521 40.5503 16.7405C40.9153 17.4288 41.3633 18.0607 41.881 18.6194C42.4617 19.2346 43.1089 19.7367 43.7991 20.1125C44.4927 20.4883 45.2726 20.7676 46.1188 20.9472C46.9617 21.1234 47.9108 21.2132 48.9396 21.2132C50.3002 21.2132 51.5115 21.0137 52.5369 20.618C53.5624 20.2222 54.4185 19.7001 55.0823 19.0616C55.7426 18.4265 56.2371 17.768 56.5457 17.1063C56.8577 16.4412 57.0137 15.8127 57.0137 15.2373C57.017 14.7618 56.8345 14.3594 56.4727 14.0435Z" fill="#333333"/>
<path d="M71.383 9.53417C70.7359 8.93226 69.9527 8.46337 69.0468 8.14079C68.1441 7.81822 67.1286 7.65527 66.0236 7.65527C64.9351 7.65527 63.9295 7.81822 63.0269 8.13747C62.1209 8.45671 61.3411 8.91896 60.7039 9.51422C60.0667 10.1062 59.5689 10.8311 59.2304 11.6691C58.8886 12.5038 58.7161 13.435 58.7161 14.4393C58.7161 15.4336 58.8853 16.3547 59.2205 17.1795C59.559 18.0042 60.0568 18.7291 60.7072 19.3344C61.3576 19.9396 62.1342 20.4085 63.0203 20.7344C63.903 21.057 64.9118 21.2199 66.0169 21.2199C67.1286 21.2199 68.1474 21.057 69.0401 20.7377C69.9362 20.4185 70.716 19.9496 71.3631 19.351C72.0103 18.7491 72.5114 18.0208 72.8499 17.1861C73.1917 16.3514 73.3609 15.4269 73.3609 14.4426C73.3609 13.4483 73.1917 12.5238 72.8565 11.6991C72.528 10.861 72.0302 10.1361 71.383 9.53417ZM69.4915 14.4359C69.4915 15.9523 69.1729 17.1495 68.5424 18.0008C67.9218 18.8422 67.0722 19.2679 66.0236 19.2679C65.33 19.2679 64.7194 19.075 64.2083 18.6925C63.6939 18.3101 63.2924 17.7481 63.0169 17.0232C62.7382 16.2915 62.5955 15.4203 62.5955 14.4326C62.5955 13.4383 62.7415 12.557 63.0236 11.8155C63.3056 11.0805 63.7105 10.5185 64.2282 10.1461C64.7426 9.77361 65.3499 9.58405 66.0269 9.58405C67.0755 9.58405 67.9251 10.0064 68.5457 10.8444C69.1729 11.6957 69.4915 12.9029 69.4915 14.4359Z" fill="#333333"/>
<path d="M80.642 4.78203C80.7913 4.75875 81.0236 4.77206 81.2792 4.96493L81.3887 5.04807C81.8035 5.36732 82.2681 5.72979 83.1774 5.53359C84.0336 5.34736 84.4185 4.70887 84.4185 4.31314C84.4185 3.3288 83.1708 2.78674 80.9042 2.78674C79.6995 2.78674 78.7371 2.92974 78.0402 3.20908C77.3301 3.49507 76.8157 3.96064 76.517 4.58915C76.2217 5.20769 76.0756 6.04571 76.0756 7.08326V8.12747H74.642C73.9584 8.12747 73.4009 8.63626 73.4009 9.26478C73.4009 9.88997 73.9584 10.4021 74.642 10.4021H76.0756V19.1049C76.0756 19.7833 76.2582 20.312 76.6232 20.6712C76.9849 21.0337 77.4462 21.2166 77.9872 21.2166C78.5579 21.2166 79.0292 21.0337 79.3942 20.6712C79.756 20.3087 79.9418 19.78 79.9418 19.1049V10.3988H81.5878C82.2714 10.3988 82.829 9.88997 82.829 9.26146C82.829 8.63627 82.2714 8.12414 81.5878 8.12414H79.9418V7.14977C79.9418 6.54454 79.9385 5.42052 80.1973 5.0514C80.2969 4.9084 80.4595 4.80864 80.642 4.78203Z" fill="#333333"/>
<path d="M96.8266 16.5443C96.8365 15.8892 96.8432 15.2939 96.8465 14.7585C96.8498 14.2231 96.8531 13.5713 96.8531 12.8031C96.8531 11.5727 96.6573 10.5717 96.2757 9.82015C95.8874 9.05862 95.2171 8.49661 94.2812 8.14744C93.362 7.80491 92.0843 7.62866 90.4881 7.62866C89.0578 7.62866 87.8432 7.80824 86.8808 8.16406C85.9118 8.52322 85.185 8.98546 84.7204 9.54414C84.2525 10.1095 84.0169 10.6981 84.0169 11.3C84.0169 11.9119 84.3122 12.6335 85.1419 12.8231C85.7492 12.9594 86.2536 12.8962 86.6386 12.6335C87.1563 12.281 87.3056 11.6824 87.3421 11.4397C87.518 10.3556 88.0224 10.1028 88.4704 9.88001C88.9516 9.64058 89.6518 9.52419 90.4881 9.54414C91.4239 9.56742 92.3797 9.64058 92.9007 10.2358C93.2425 10.6282 93.3719 11.2169 93.2923 12.0349C92.7779 12.1679 92.1938 12.2843 91.6728 12.3908C91.4438 12.4373 91.2315 12.4805 91.039 12.5204C90.3952 12.6601 89.6087 12.8131 88.7027 12.9827C87.7967 13.149 87.2226 13.2587 86.9903 13.3086C85.8753 13.5281 84.9859 13.967 84.3421 14.6122C83.6684 15.2906 83.3665 16.4977 83.3665 17.3956C83.3665 18.0807 83.5656 18.7258 83.9572 19.3111C84.3488 19.8964 84.9096 20.3619 85.6297 20.7045C86.3465 21.0437 87.1861 21.2133 88.1286 21.2133C89.154 21.2133 90.0932 21.057 90.9228 20.7444C91.716 20.4451 92.5423 19.9995 93.3852 19.4142C93.7702 19.9695 94.1418 20.4052 94.4903 20.7078C94.8752 21.0437 95.2702 21.2133 95.6717 21.2133C96.1396 21.2133 96.5644 21.0636 96.9328 20.7743C97.3111 20.475 97.5036 20.1358 97.5036 19.76C97.5036 19.5538 97.3907 19.1182 97.1584 18.4298C96.9394 17.778 96.8266 17.1462 96.8266 16.5443ZM93.1795 14.1533C93.1728 14.7186 93.0965 16.5509 92.4527 17.4987C92.1938 17.8811 91.0755 18.9652 89.3432 18.922C88.6463 18.902 88.1186 18.7191 87.7237 18.36C87.3122 17.9842 87.1131 17.5419 87.1131 17.0065C87.1131 16.4944 87.279 16.1053 87.6209 15.8226C87.9726 15.53 88.3476 15.3305 88.7326 15.2307C89.1374 15.1243 89.8742 14.9613 90.9162 14.7385C91.8753 14.5357 92.6352 14.3395 93.1795 14.1533Z" fill="#333333"/>
<path d="M111.488 15.54C110.668 15.4169 109.696 15.8393 109.49 16.7604C109.477 16.8203 109.464 16.8868 109.451 16.9633C109.295 17.788 109.003 19.3211 106.378 19.3211C103.616 19.3211 102.88 16.2949 102.88 14.5091C102.88 12.6701 103.328 9.58737 106.324 9.58737C108.472 9.58737 108.91 10.8078 109.202 11.6126C109.281 11.8354 109.351 12.0249 109.444 12.1646C109.955 12.9428 110.552 13.1057 110.964 13.1057C111.452 13.1057 111.873 12.9594 112.215 12.6701C112.563 12.3741 112.743 12.0083 112.743 11.5793C112.743 11.1736 112.59 10.7347 112.291 10.2724C111.996 9.82015 111.568 9.38452 111.014 8.98546C110.463 8.5864 109.782 8.2605 108.989 8.00777C108.199 7.75836 107.32 7.62866 106.374 7.62866C104.851 7.62866 103.52 7.91798 102.422 8.48664C101.317 9.05862 100.464 9.88001 99.8798 10.9275C99.299 11.9717 99.0037 13.1922 99.0037 14.549C99.0037 16.5576 99.6508 18.1837 100.925 19.3809C102.196 20.5781 103.988 21.1833 106.245 21.1833C107.303 21.1833 108.269 21.0536 109.115 20.7942C109.965 20.5349 110.678 20.189 111.243 19.76C111.803 19.3344 112.231 18.8754 112.507 18.3999C112.786 17.9177 112.928 17.4588 112.928 17.0298C112.925 16.6507 112.786 15.7329 111.488 15.54Z" fill="#333333"/>
<path d="M122.559 18.2568C122.068 18.2568 121.815 18.5129 121.573 18.7623C121.318 19.0217 121.079 19.2678 120.544 19.2678C119.987 19.2678 119.705 18.32 119.705 16.4478V10.3954H121.328C122.011 10.3954 122.569 9.88661 122.569 9.25809C122.569 8.6329 122.011 8.12078 121.328 8.12078H119.705V5.82952C119.705 5.27084 119.672 4.8352 119.602 4.52593C119.529 4.20004 119.356 3.9207 119.091 3.69789C118.699 3.36867 118.255 3.20239 117.767 3.20239C117.422 3.20239 117.103 3.27888 116.821 3.4252C116.539 3.57485 116.317 3.77438 116.167 4.01048C116.015 4.24327 115.922 4.51928 115.888 4.83853C115.859 5.14115 115.842 5.56348 115.842 6.09224V8.12078H115.059C114.375 8.12078 113.818 8.62958 113.818 9.25809C113.818 9.88329 114.375 10.3954 115.059 10.3954H115.842V16.7105C115.842 17.7347 115.935 18.5628 116.117 19.1813C116.307 19.8165 116.711 20.322 117.319 20.6778C117.919 21.0303 118.805 21.2099 119.954 21.2099C121.158 21.2099 122.097 21.0636 122.748 20.7809C123.428 20.4816 123.777 20.036 123.777 19.4573C123.773 19.1248 123.554 18.2568 122.559 18.2568Z" fill="#333333"/>
<path d="M136.45 15.131C136.075 14.6521 135.514 14.2298 134.791 13.8806C134.074 13.5347 133.138 13.2321 132.013 12.9827C131.074 12.7765 130.324 12.6003 129.793 12.4573C129.269 12.3176 128.851 12.1413 128.545 11.9285C128.26 11.7323 128.121 11.4896 128.121 11.1836C128.121 10.881 128.223 9.3812 130.278 9.3812C132.163 9.3812 132.465 10.3788 132.607 10.8577C132.621 10.8976 132.631 10.9309 132.64 10.9608C132.996 12.0216 134.184 12.434 135.126 12.2178C136.072 12.005 136.324 11.2169 136.324 10.7879C136.324 10.4187 136.185 10.0396 135.909 9.66054C135.64 9.28808 135.242 8.94556 134.731 8.64294C134.223 8.34365 133.583 8.10089 132.826 7.92131C132.073 7.74506 131.213 7.65527 130.274 7.65527C129.07 7.65527 128.028 7.83485 127.171 8.18735C126.312 8.54318 125.648 9.02537 125.204 9.62396C124.756 10.2259 124.53 10.8777 124.53 11.5561C124.53 12.3209 124.779 12.9727 125.267 13.4981C125.744 14.0136 126.392 14.4326 127.188 14.7452C127.971 15.0545 129 15.3538 130.248 15.6331C131.336 15.8692 132.126 16.1186 132.594 16.378C133.065 16.6374 133.288 17.0198 133.254 17.522C133.188 18.483 132.358 19.4541 130.898 19.4541C129.229 19.4541 128.107 18.6925 127.566 17.1894C127.288 16.4079 126.412 16.0155 125.439 16.235C124.596 16.4246 124.371 17.1695 124.371 17.5785C124.371 18.1505 124.603 18.7225 125.061 19.2812C125.516 19.8332 126.222 20.3021 127.165 20.6679C128.101 21.0304 129.242 21.2166 130.55 21.2166C131.917 21.2166 133.098 21.047 134.058 20.7111C135.027 20.3719 135.77 19.8664 136.268 19.2047C136.769 18.5429 137.021 17.7381 137.021 16.8103C137.028 16.1851 136.832 15.6198 136.45 15.131Z" fill="#333333"/>
</svg>
