<?xml version="1.0" encoding="utf-8"?><svg version="1.2" baseProfile="tiny" xmlns="http://www.w3.org/2000/svg" xmlns:xlink="http://www.w3.org/1999/xlink" x="0px" y="0px" width="800px" height="400px" viewBox="0 0 800 400" xml:space="preserve"><g transform="translate(103.000000, 76.000000)"><path d="M87.638,91.234c30.383,0,51.979,4.468,67.468,10.426V76.638C142,72.468,121.298,68,88.234,68C46.085,68,25.979,76.489,16,86.468C6.766,95.702,2,108.064,2,124s4.766,28.298,14,37.532C26.128,171.809,45.787,180,86.894,180c32.915,0,53.17-4.617,65.681-17.128C159.426,156.021,163,146.34,163,129.66v-13.851H71.255v20.851h64.34c0.149,2.383,0.149,7.894-3.574,11.617c-6.702,6.702-23.234,8.936-45.128,8.936c-26.809,0-40.809-4.915-47.362-11.468c-4.766-4.915-7.298-11.915-7.298-21.745c0-9.532,2.681-16.979,7.894-22.191C45.936,96,60.085,91.234,87.638,91.234C87.638,91.234,60.085,91.234,87.638,91.234L87.638,91.234L87.638,91.234z"/><path d="M600,72h-34.145l-54.69,81.863L456.623,72H421l71.393,104h36.214l0,0L600,72L600,72z"/><path fill="#C60000" d="M412,0h-29.622L189,247h30.069L412,0z"/><path d="M368.145,86.766C358.417,76.936,339.697,68,298.574,68c-39.65,0-59.843,8.787-69.718,18.766C219.864,95.851,215,107.17,215,124s4.864,28,13.855,37.085c9.728,9.83,29.332,18.915,69.718,18.915s59.843-8.936,69.571-18.766C377.136,152.149,382,140.83,382,124C382,107.021,377.136,95.851,368.145,86.766z M298.573,156c-26.347,0-39.96-5.451-45.815-11.344C248.22,140.089,245,134.196,245,123s2.781-17.237,7.611-22.098C258.613,94.862,272.226,90,298.573,90s39.521,5.009,45.669,11.196C349.073,106.058,352,111.804,352,123s-2.781,17.237-7.611,22.098C338.241,151.286,324.921,156,298.573,156z"/></g></svg>
