<?xml version="1.0" encoding="utf-8"?>
<!-- Generator: Adobe Illustrator 16.0.0, SVG Export Plug-In . SVG Version: 6.00 Build 0)  -->
<!DOCTYPE svg PUBLIC "-//W3C//DTD SVG 1.1//EN" "http://www.w3.org/Graphics/SVG/1.1/DTD/svg11.dtd">
<svg version="1.1" id="圖層_1" xmlns="http://www.w3.org/2000/svg" xmlns:xlink="http://www.w3.org/1999/xlink" x="0px" y="0px"
	 width="1024px" height="1024px" viewBox="0 0 1024 1024" enable-background="new 0 0 1024 1024" xml:space="preserve">
<g>
	<path fill="#6B6961" d="M962,174.5V62c-117.396,0-220.786,59.941-281.25,150.884C620.286,121.941,516.895,62,399.5,62
		C213.104,62,62,213.104,62,399.5C62,585.896,213.104,737,399.5,737c86.468,0,165.337-32.521,225.054-85.994V962h112.5V651.103
		C796.758,704.518,875.584,737,962,737V624.5c-122.849,0-222.689-98.46-224.946-220.77v-4.23H737
		C737,275.235,837.735,174.5,962,174.5z M399.5,624.5c-124.264,0-225-100.736-225-225c0-124.264,100.736-225,225-225
		s224.999,100.736,224.999,225C624.499,523.764,523.764,624.5,399.5,624.5z"/>
	<g>
		<g>
			<g>
				<path fill="#6B6961" d="M83.159,925.927v16.171c0,3.393-1.031,5.888-3.098,7.482c-2.065,1.596-4.543,2.393-7.431,2.393
					c-2.89,0-5.384-0.797-7.482-2.393c-2.101-1.595-3.148-4.09-3.148-7.482v-16.223c0-3.458,0.948-6.078,2.847-7.859
					c1.897-1.779,4.509-2.669,7.834-2.669s5.902,0.938,7.734,2.82C82.244,920.049,83.159,922.635,83.159,925.927z M78.575,941.393
					v-14.459c0-2.217-0.462-3.896-1.385-5.039c-0.925-1.141-2.462-1.712-4.611-1.712s-3.686,0.562-4.609,1.688
					c-0.925,1.125-1.386,2.796-1.386,5.012v14.562c0,1.883,0.53,3.342,1.588,4.384c1.058,1.041,2.51,1.562,4.357,1.562
					c1.847,0,3.316-0.528,4.408-1.586C78.029,944.744,78.575,943.274,78.575,941.393z"/>
				<path fill="#6B6961" d="M95,960.891L90.415,962v-35.823h4.383l0.101,1.109c1.176-1.007,2.822-1.511,4.938-1.511
					c3.124,0,5.501,0.906,7.129,2.72c1.629,1.814,2.444,4.166,2.444,7.055v7.003c0,3.057-0.855,5.398-2.57,7.027
					c-1.713,1.63-3.98,2.444-6.801,2.444c-2.049,0-3.729-0.472-5.038-1.41V960.891z M104.824,941.896v-6.55
					c0-1.712-0.421-2.997-1.259-3.854c-0.841-0.856-2.017-1.283-3.527-1.283c-1.512,0-2.721,0.421-3.628,1.259
					c-0.907,0.841-1.378,2.049-1.41,3.627v7.255c0,3.461,1.679,5.191,5.038,5.191C103.229,947.541,104.824,945.659,104.824,941.896z
					"/>
				<path fill="#6B6961" d="M121.601,947.793c1.881,0,4.081-0.673,6.601-2.018l1.713,3.881c-2.587,1.579-5.29,2.368-8.111,2.368
					c-5.845,0-8.767-2.452-8.767-7.355V934.34c0-2.72,0.847-4.838,2.544-6.349c1.696-1.511,3.938-2.268,6.726-2.268
					c2.789,0,4.964,0.748,6.524,2.243c1.562,1.494,2.344,3.569,2.344,6.222v7.255l-13.503,0.757v1.964
					c0,1.345,0.395,2.284,1.184,2.821C119.644,947.524,120.56,947.793,121.601,947.793z M126.538,937.413v-3.275
					c0-1.376-0.437-2.393-1.31-3.047c-0.873-0.656-1.957-0.984-3.249-0.984c-1.294,0-2.336,0.396-3.125,1.186
					s-1.184,1.822-1.184,3.098v3.528L126.538,937.413z"/>
				<path fill="#6B6961" d="M140.896,926.984c1.478-0.808,3.106-1.209,4.888-1.209c1.779,0,3.408,0.301,4.887,0.906
					c2.854,1.31,4.283,3.745,4.283,7.306v17.433h-4.585v-16.374c0-1.614-0.487-2.84-1.461-3.679
					c-0.976-0.84-2.185-1.261-3.628-1.261c-1.445,0-2.906,0.388-4.384,1.161v20.152h-4.534v-25.243h4.182L140.896,926.984z"/>
				<path fill="#6B6961" d="M193.093,946.027l0.756,4.233c-2.855,1.107-5.576,1.663-8.162,1.663c-0.537,0-1.352-0.051-2.443-0.151
					s-2.25-0.478-3.477-1.134c-1.227-0.654-2.217-1.695-2.973-3.125c-0.755-1.427-1.134-3.197-1.134-5.313v-16.173
					c0-2.553,0.361-4.485,1.084-5.796c0.722-1.31,1.821-2.417,3.3-3.325c1.512-0.838,3.307-1.259,5.391-1.259
					c2.586,0,4.971,0.554,7.154,1.663l-1.31,3.93c-1.612-0.604-3.283-0.906-5.013-0.906c-1.731,0-3.166,0.429-4.309,1.283
					c-1.142,0.857-1.713,2.176-1.713,3.957v16.523c0,1.513,0.369,2.688,1.108,3.528c0.94,1.074,2.452,1.611,4.535,1.611
					C187.97,947.237,190.372,946.836,193.093,946.027z"/>
				<path fill="#6B6961" d="M214.706,951.42h-4.333l-0.15-1.109c-1.344,1.109-2.956,1.662-4.837,1.662
					c-6.315,0-9.473-3.072-9.473-9.219v-16.577h4.585v16.173c0,3.461,1.629,5.191,4.888,5.191c3.157,0,4.735-1.781,4.735-5.341
					v-16.023h4.585V951.42z"/>
				<path fill="#6B6961" d="M225.136,951.42h-4.584v-35.268h4.584V951.42z"/>
				<path fill="#6B6961" d="M239.595,948.447l-1.361,3.626c-4.567-0.401-6.851-2.837-6.851-7.304v-28.617h4.636v10.024h5.238
					l-1.209,4.334h-4.029v14.259C236.019,946.885,237.209,948.11,239.595,948.447z"/>
				<path fill="#6B6961" d="M263.022,951.42h-4.334l-0.151-1.109c-1.343,1.109-2.956,1.662-4.837,1.662
					c-6.314,0-9.472-3.072-9.472-9.219v-16.577h4.585v16.173c0,3.461,1.63,5.191,4.887,5.191c3.158,0,4.736-1.781,4.736-5.341
					v-16.023h4.586V951.42z"/>
				<path fill="#6B6961" d="M272.543,926.934c1.511-0.773,3.241-1.158,5.188-1.158c0.605,0,1.883,0.185,3.83,0.553l-1.109,4.384
					c-0.906-0.435-1.796-0.654-2.669-0.654c-0.874,0-1.697,0.133-2.469,0.401c-1.813,0.673-2.72,1.85-2.72,3.528v17.433h-4.586
					v-25.243h4.334L272.543,926.934z"/>
				<path fill="#6B6961" d="M291.235,947.793c1.88,0,4.082-0.673,6.602-2.018l1.712,3.881c-2.587,1.579-5.289,2.368-8.112,2.368
					c-5.843,0-8.766-2.452-8.766-7.355V934.34c0-2.72,0.849-4.838,2.544-6.349s3.938-2.268,6.726-2.268
					c2.789,0,4.964,0.748,6.525,2.243c1.562,1.494,2.344,3.569,2.344,6.222v7.255l-13.504,0.757v1.964
					c0,1.345,0.396,2.284,1.186,2.821C289.278,947.524,290.194,947.793,291.235,947.793z M296.175,937.413v-3.275
					c0-1.376-0.439-2.393-1.311-3.047c-0.875-0.656-1.957-0.984-3.251-0.984s-2.335,0.396-3.122,1.186
					c-0.789,0.789-1.186,1.822-1.186,3.098v3.528L296.175,937.413z"/>
				<path fill="#6B6961" d="M325.294,951.42h-4.584v-35.268h16.827v4.534h-12.243v9.925h7.607l-1.611,4.435h-5.996V951.42z"/>
				<path fill="#6B6961" d="M355.877,935.499v6.65c0,2.82-0.772,5.155-2.318,7.003c-1.546,1.847-3.879,2.771-7.003,2.771
					c-3.123,0-5.484-0.933-7.079-2.796c-1.596-1.866-2.393-4.19-2.393-6.979v-6.65c0-3.19,0.813-5.634,2.443-7.331
					c1.628-1.696,3.938-2.545,6.928-2.545s5.308,0.882,6.954,2.645C355.053,930.031,355.877,932.441,355.877,935.499z
					 M351.342,942.653v-7.154c0-3.56-1.595-5.341-4.786-5.341c-3.258,0-4.888,1.781-4.888,5.341v7.154
					c0,1.578,0.455,2.78,1.361,3.603c0.905,0.823,2.083,1.233,3.526,1.233c1.442,0,2.604-0.42,3.477-1.259
					C350.905,945.391,351.342,944.199,351.342,942.653z"/>
				<path fill="#6B6961" d="M378.348,951.42h-4.334l-0.151-1.109c-1.343,1.109-2.956,1.662-4.836,1.662
					c-6.314,0-9.472-3.072-9.472-9.219v-16.577h4.584v16.173c0,3.461,1.63,5.191,4.888,5.191c3.156,0,4.735-1.781,4.735-5.341
					v-16.023h4.586V951.42z"/>
				<path fill="#6B6961" d="M388.021,926.984c1.476-0.808,3.105-1.209,4.887-1.209c1.779,0,3.407,0.301,4.886,0.906
					c2.855,1.31,4.282,3.745,4.282,7.306v17.433h-4.584v-16.374c0-1.614-0.487-2.84-1.461-3.679
					c-0.975-0.84-2.184-1.261-3.627-1.261c-1.445,0-2.907,0.388-4.383,1.161v20.152h-4.535v-25.243h4.182L388.021,926.984z"/>
				<path fill="#6B6961" d="M413.665,926.732c1.644-0.673,3.374-1.009,5.188-1.009c1.813,0,3.342,0.336,4.586,1.009v-10.58h4.532
					v35.268c-2.889,0.403-5.558,0.604-8.01,0.604c-2.451,0-4.67-0.505-6.65-1.511c-2.619-1.343-3.93-3.678-3.93-7.004v-9.522
					C409.382,930.459,410.809,928.043,413.665,926.732z M423.439,931.417c-1.48-0.771-2.915-1.158-4.31-1.158
					c-1.394,0-2.611,0.388-3.651,1.158c-1.041,0.772-1.562,2.083-1.562,3.93v8.414c0,1.714,0.938,2.891,2.82,3.528
					c1.009,0.336,2.073,0.504,3.2,0.504c1.124,0,2.292-0.136,3.502-0.404V931.417z"/>
				<path fill="#6B6961" d="M438.956,931.216c2.924,0,5.441,0.673,7.559,2.016c0-2.821-2.082-4.231-6.248-4.231l0.353-3.225
					c2.721,0,4.735,0.319,6.046,0.957c0.705,0.369,1.326,0.738,1.865,1.107c0.537,0.371,0.957,0.856,1.259,1.461
					c0.304,0.605,0.554,1.134,0.757,1.587c0.2,0.453,0.334,1.068,0.401,1.839c0.101,1.177,0.151,2.403,0.151,3.678v15.016
					c-3.493,0.336-6.281,0.504-8.363,0.504c-7.356,0-11.034-3.006-11.034-9.019v-4.182c0-3.325,1.16-5.56,3.477-6.702
					C436.32,931.484,437.579,931.216,438.956,931.216z M446.515,947.438v-9.623c-1.781-1.04-3.812-1.695-6.097-1.964
					c-0.235-0.033-0.629-0.052-1.185-0.052c-0.554,0-1.184,0.244-1.889,0.732c-0.705,0.485-1.058,1.386-1.058,2.695v3.325
					c0,3.459,2.184,5.189,6.55,5.189C443.944,947.742,445.17,947.642,446.515,947.438z"/>
				<path fill="#6B6961" d="M463.543,948.447l-1.359,3.626c-4.569-0.401-6.854-2.837-6.854-7.304v-28.617h4.636v10.024h5.24
					l-1.21,4.334h-4.03v14.259C459.966,946.885,461.159,948.11,463.543,948.447z"/>
				<path fill="#6B6961" d="M475.333,918.143c0,0.654-0.252,1.242-0.756,1.763c-0.505,0.521-1.083,0.781-1.739,0.781
					c-0.653,0-1.242-0.26-1.763-0.781c-0.521-0.521-0.781-1.108-0.781-1.763c0-0.656,0.261-1.236,0.781-1.738
					c0.521-0.505,1.109-0.757,1.763-0.757c0.656,0,1.234,0.252,1.739,0.757C475.081,916.906,475.333,917.486,475.333,918.143z
					 M475.029,951.42h-4.584v-25.243h4.584V951.42z"/>
				<path fill="#6B6961" d="M502.087,935.499v6.65c0,2.82-0.773,5.155-2.318,7.003c-1.547,1.847-3.879,2.771-7.004,2.771
					c-3.122,0-5.484-0.933-7.078-2.796c-1.596-1.866-2.393-4.19-2.393-6.979v-6.65c0-3.19,0.813-5.634,2.443-7.331
					c1.628-1.696,3.938-2.545,6.927-2.545s5.308,0.882,6.954,2.645C501.263,930.031,502.087,932.441,502.087,935.499z
					 M497.552,942.653v-7.154c0-3.56-1.595-5.341-4.787-5.341c-3.258,0-4.887,1.781-4.887,5.341v7.154
					c0,1.578,0.455,2.78,1.361,3.603c0.905,0.823,2.082,1.233,3.525,1.233s2.604-0.42,3.477-1.259
					C497.115,945.391,497.552,944.199,497.552,942.653z"/>
				<path fill="#6B6961" d="M511.71,926.984c1.476-0.808,3.105-1.209,4.887-1.209c1.78,0,3.408,0.301,4.886,0.906
					c2.855,1.31,4.282,3.745,4.282,7.306v17.433h-4.584v-16.374c0-1.614-0.487-2.84-1.461-3.679
					c-0.974-0.84-2.184-1.261-3.627-1.261c-1.445,0-2.907,0.388-4.383,1.161v20.152h-4.535v-25.243h4.183L511.71,926.984z"/>
			</g>
		</g>
		<g>
			<path fill="#6B6961" d="M70.887,865.839v35.938h-6.179V842.8h25.189v23.039H70.887z M70.887,847.434v4.434h13.101v-4.434H70.887z
				 M83.987,861.204v-5.037H70.887v5.037H83.987z M101.652,885.991v14.711h-5.576v-14.711h-8.059
				c-0.539,4.5-2.688,11.555-8.869,15.65c-0.938-1.074-2.82-2.753-4.163-3.694c5.104-3.09,7.052-8.262,7.591-11.956h-7.659v-5.173
				h7.793v-6.313h-6.65v-5.039h32.646v5.039h-7.053v6.313h8.329v5.173H101.652z M96.076,880.818v-6.313h-7.925v6.313H96.076z
				 M120.327,894.117c0,3.429-0.74,5.309-2.957,6.383c-2.148,1.008-5.508,1.142-10.478,1.142c-0.269-1.747-1.21-4.636-2.083-6.382
				c3.357,0.203,6.852,0.135,7.926,0.135c1.076,0,1.345-0.336,1.345-1.343V866.04H94.802V842.8h25.525V894.117z M100.712,847.434
				v4.434h13.368v-4.434H100.712z M114.08,861.339v-5.172h-13.368v5.172H114.08z"/>
			<path fill="#6B6961" d="M185.689,858.047c-1.679,10.345-4.231,18.81-8.129,25.861c3.493,5.308,7.995,9.539,13.638,12.159
				c-1.343,1.207-3.358,3.626-4.231,5.373c-5.441-2.82-9.675-6.852-13.101-11.822c-3.963,4.971-8.932,9.002-15.181,12.227
				c-0.604-1.413-2.349-4.233-3.559-5.441c6.583-3.023,11.62-7.188,15.313-12.562c-2.484-4.836-4.364-10.41-5.91-16.456
				c-1.277,2.62-2.753,4.97-4.299,7.052c-0.873-1.142-2.82-3.225-4.299-4.499c-0.404,19.278-0.873,26.331-2.484,28.547
				c-1.143,1.546-2.284,2.15-4.166,2.419c-1.611,0.269-4.433,0.269-7.188,0.134c-0.201-1.68-0.806-4.097-1.611-5.71
				c2.417,0.269,4.635,0.269,5.709,0.269c0.941,0,1.546-0.201,1.947-0.938c1.074-1.411,1.547-7.592,1.883-24.788h-7.659
				c0,10.949-1.343,22.301-9.941,31.639c-1.074-1.345-3.089-3.023-4.635-4.098c7.725-8.463,8.733-18.606,8.733-27.674V856.3h-7.323
				v-5.843h29.423v5.843h-16.257v7.86h13.702c0,0,0,1.88-0.065,2.688l-0.067,2.016c5.24-6.852,8.666-17.668,10.545-28.887
				l6.383,1.009c-0.74,3.83-1.611,7.657-2.553,11.284h20.219v5.777H185.689z M142.9,850.39c-0.603-2.419-2.016-6.314-3.223-9.136
				l5.507-1.478c1.344,2.82,2.822,6.515,3.427,8.935L142.9,850.39z M168.292,858.518c1.344,6.985,3.157,13.367,5.71,19.009
				c2.62-5.574,4.299-11.956,5.44-19.479h-10.949L168.292,858.518z"/>
			<path fill="#6B6961" d="M246.688,857.577c-3.561,10.144-8.53,18.338-14.845,25.056c7.188,5.843,15.919,10.21,26.264,12.762
				c-1.41,1.343-3.225,3.963-4.231,5.777c-10.681-2.889-19.615-7.657-26.868-13.971c-7.456,6.313-16.592,11.015-27.475,14.373
				c-0.738-1.611-2.62-4.5-3.896-5.979c10.813-2.889,19.615-7.052,26.735-12.896c-6.516-6.92-11.487-15.314-15.249-25.122h-10.345
				v-6.046h29.086c-0.807-2.753-2.688-6.986-4.502-10.144l6.583-1.947c1.95,3.156,4.099,7.456,4.972,10.211l-5.978,1.88h30.16v6.046
				H246.688z M213.638,857.577c3.226,7.926,7.725,14.845,13.435,20.757c5.44-5.644,9.606-12.495,12.628-20.757H213.638z"/>
			<path fill="#6B6961" d="M286.326,842.195c-1.814,4.299-4.099,8.598-6.585,12.694v46.685h-5.91v-38.087
				c-2.553,3.36-5.24,6.382-7.994,8.935c-0.537-1.479-2.283-4.836-3.426-6.314c7.121-6.111,14.039-15.852,18.203-25.794
				L286.326,842.195z M313.799,894.052c3.627,0,4.231-2.82,4.769-14.106c1.479,1.143,4.03,2.352,5.642,2.754
				c-0.873,12.561-2.417,16.994-10.009,16.994h-12.023c-7.388,0-9.471-2.216-9.471-10.276v-48.298h5.978v17.735h23.646v5.978
				h-23.646v24.718c0,3.763,0.673,4.502,4.03,4.502H313.799z"/>
			<path fill="#6B6961" d="M378.288,876.922c3.762,3.896,9.068,7.322,14.24,9.137c-1.343,1.143-3.157,3.358-4.096,4.836
				c-6.449-2.82-12.832-8.128-16.928-13.973h-20.018c-1.613,2.352-3.696,4.702-5.912,6.785h12.293v-5.039h6.313v5.039h13.301v4.97
				h-13.301v5.98h22.571v5.172h-50.581v-5.172h21.696v-5.98h-12.83v-4.433c-3.358,3.022-7.256,5.574-11.083,7.389
				c-0.873-1.478-2.688-3.694-4.03-4.769c5.306-2.015,10.682-5.776,14.509-9.942h-13.839v-5.171h13.033v-20.757h-9.74v-5.104h9.74
				v-5.845h6.246v5.845h22.838v-5.777h6.382v5.777h9.606v5.104h-9.606v20.757h12.629v5.171H378.288z M349.874,850.994v3.762h22.838
				v-3.762H349.874z M349.874,863.153h22.838v-3.83h-22.838V863.153z M349.874,871.751h22.838v-4.03h-22.838V871.751z"/>
			<path fill="#6B6961" d="M431.494,865.438v8.126h22.502v5.644h-22.502v14.979h25.727v5.709h-57.634v-5.709h25.257v-14.979h-22.167
				v-5.644h22.167v-8.126h-14.039v-3.494c-3.157,1.68-6.382,3.09-9.74,4.3c-0.873-1.814-2.62-4.231-4.165-5.777
				c12.495-3.83,24.652-11.218,31.033-21.094l5.846,2.62c-0.605,0.873-1.143,1.747-1.747,2.553
				c6.583,6.583,17.868,12.965,27.942,15.988c-1.41,1.275-3.357,3.762-4.299,5.441c-3.291-1.21-6.648-2.756-10.009-4.636v4.099
				H431.494z M412.888,879.878c2.553,3.561,5.238,8.465,6.314,11.622l-5.441,2.35c-0.94-3.157-3.561-8.194-5.979-11.957
				L412.888,879.878z M442.645,859.66c-5.24-3.157-10.21-6.852-14.239-10.882c-3.897,4.231-8.465,7.857-13.502,10.882H442.645z
				 M436.599,891.901c2.284-3.225,5.105-8.329,6.516-12.023l6.045,2.216c-2.552,4.233-5.508,8.801-7.792,11.823L436.599,891.901z"/>
			<path fill="#6B6961" d="M500.149,841.591c-0.336,0.401-0.605,0.873-1.009,1.274c6.247,5.777,17.601,10.882,28.078,13.101
				c-1.275,1.074-3.022,3.29-3.963,4.769c-1.611-0.47-3.358-1.009-5.037-1.611v17.396H472.81v-16.928
				c-1.68,0.605-3.291,1.143-4.972,1.612c-0.537-1.143-2.284-3.694-3.358-4.769c12.159-3.09,24.048-8.935,30.161-16.793
				L500.149,841.591z M517.95,859.055c-3.629-1.276-7.323-2.82-10.748-4.77v1.949H483.96v-1.613c-3.09,1.746-6.382,3.157-9.74,4.434
				H517.95z M476.639,879.207h38.288v22.099h-6.383v-1.812h-25.727v2.081h-6.179V879.207z M485.774,863.555
				c1.478,2.284,2.954,5.374,3.426,7.389l-4.435,1.479h7.928v-9.269h-14.576v9.269h6.447c-0.47-2.083-1.747-5.173-3.157-7.524
				L485.774,863.555z M482.817,883.507v3.694h25.727v-3.694H482.817z M508.544,895.26v-3.76h-25.727v3.76H508.544z M503.239,851.936
				c-2.756-1.68-5.24-3.629-7.389-5.645c-2.151,2.016-4.703,3.965-7.323,5.645H503.239z M512.71,863.153h-14.912v9.269h7.523
				l-4.165-1.275c1.209-2.15,2.62-5.576,3.357-7.86l5.24,1.479c-1.478,2.889-2.956,5.709-4.164,7.657h7.12V863.153z"/>
		</g>
	</g>
</g>
</svg>
