<svg width="1315" height="1369" viewBox="0 0 1315 1369" fill="none" xmlns="http://www.w3.org/2000/svg">
<g opacity="0.7">
<circle cx="72.6923" cy="126.269" r="3.46154" fill="#DED5FF"/>
<circle cx="71.3077" cy="2.80769" r="2.30769" fill="#DED5FF"/>
<circle cx="14.3077" cy="509.808" r="2.30769" fill="#DED5FF"/>
<circle cx="1167.31" cy="81.8077" r="2.30769" fill="#DED5FF"/>
<circle cx="1295.31" cy="24.8077" r="2.30769" fill="#DED5FF"/>
<circle cx="1280.31" cy="520.808" r="2.30769" fill="#DED5FF"/>
<circle cx="976.308" cy="1325.81" r="2.30769" fill="#DED5FF"/>
<circle cx="994.308" cy="36.8077" r="2.30769" fill="#DED5FF"/>
<circle cx="1300.31" cy="128.808" r="2.30769" fill="#DED5FF"/>
<circle cx="1172.31" cy="278.808" r="2.30769" fill="#DED5FF"/>
<circle cx="382.308" cy="161.808" r="2.30769" fill="#DED5FF"/>
<circle cx="200.308" cy="228.808" r="2.30769" fill="#DED5FF" fill-opacity="0.6"/>
<circle cx="939.308" cy="130.808" r="2.30769" fill="#DED5FF"/>
<circle cx="1063.31" cy="78.8077" r="2.30769" fill="#DED5FF"/>
<circle cx="1106.31" cy="217.808" r="2.30769" fill="#DED5FF"/>
<circle cx="1278.31" cy="228.808" r="2.30769" fill="#DED5FF"/>
<circle cx="1278.31" cy="373.808" r="2.30769" fill="#DED5FF"/>
<circle cx="1118.31" cy="1056.81" r="2.30769" fill="#DED5FF"/>
<circle cx="1258.31" cy="1365.81" r="2.30769" fill="#DED5FF"/>
<circle cx="1253.31" cy="777.808" r="2.30769" fill="#DED5FF"/>
<circle cx="65.3077" cy="1148.81" r="2.30769" fill="#DED5FF"/>
<circle cx="69.3077" cy="745.808" r="2.30769" fill="#DED5FF"/>
<circle cx="222.308" cy="1327.81" r="2.30769" fill="#DED5FF"/>
<circle cx="54.3077" cy="228.808" r="2.30769" fill="#DED5FF"/>
<circle cx="11.3077" cy="335.808" r="2.30769" fill="#DED5FF"/>
<circle cx="302.308" cy="128.577" r="2.30769" fill="#DED5FF"/>
<circle cx="160.308" cy="179.808" r="2.30769" fill="#DED5FF"/>
<circle cx="205.308" cy="392.808" r="2.30769" fill="#DED5FF"/>
<circle cx="54.3077" cy="980.808" r="2.30769" fill="#DED5FF"/>
<circle cx="5.76923" cy="120.5" r="5.76923" fill="#DED5FF" fill-opacity="0.5"/>
<circle cx="1220.77" cy="42.2692" r="5.76923" fill="#DED5FF" fill-opacity="0.5"/>
<circle cx="1232.77" cy="416.269" r="5.76923" fill="#DED5FF" fill-opacity="0.5"/>
<circle cx="1220.77" cy="1110.27" r="5.76923" fill="#DED5FF" fill-opacity="0.5"/>
<circle cx="207.769" cy="1062.27" r="5.76923" fill="#DED5FF" fill-opacity="0.5"/>
<circle cx="870.769" cy="993.269" r="5.76923" fill="#DED5FF" fill-opacity="0.5"/>
<circle cx="1286.77" cy="149.269" r="5.76923" fill="#DED5FF" fill-opacity="0.5"/>
<circle cx="1308.77" cy="518.269" r="5.76923" fill="#DED5FF" fill-opacity="0.5"/>
<circle cx="1056.77" cy="1229.27" r="5.76923" fill="#DED5FF" fill-opacity="0.5"/>
<circle cx="150.769" cy="1213.27" r="5.76923" fill="#DED5FF" fill-opacity="0.5"/>
<circle cx="780.769" cy="1029.27" r="5.76923" fill="#DED5FF" fill-opacity="0.5"/>
<circle cx="1244.77" cy="737.269" r="5.76923" fill="#DED5FF" fill-opacity="0.5"/>
<circle cx="1034.77" cy="18.2692" r="5.76923" fill="#DED5FF" fill-opacity="0.5"/>
<circle cx="1071.77" cy="137.269" r="5.76923" fill="#DED5FF" fill-opacity="0.5"/>
<circle cx="987.769" cy="234.269" r="5.76923" fill="#DED5FF" fill-opacity="0.5"/>
<circle cx="310.769" cy="30.2692" r="5.76923" fill="#DED5FF" fill-opacity="0.5"/>
<circle cx="238.769" cy="137.269" r="5.76923" fill="#DED5FF" fill-opacity="0.5"/>
<circle cx="213.769" cy="270.269" r="5.76923" fill="#DED5FF" fill-opacity="0.5"/>
<circle cx="5.76923" cy="1180.27" r="5.76923" fill="#DED5FF" fill-opacity="0.5"/>
<circle cx="44.7692" cy="769.269" r="5.76923" fill="#DED5FF" fill-opacity="0.5"/>
<circle cx="298.769" cy="1329.27" r="5.76923" fill="#DED5FF" fill-opacity="0.5"/>
<circle cx="62.7692" cy="365.269" r="5.76923" fill="#DED5FF" fill-opacity="0.5"/>
<circle cx="56.7692" cy="1314.27" r="5.76923" fill="#DED5FF" fill-opacity="0.5"/>
<circle cx="94.7692" cy="578.269" r="5.76923" fill="#DED5FF" fill-opacity="0.5"/>
<circle cx="349.769" cy="226.269" r="5.76923" fill="#DED5FF" fill-opacity="0.5"/>
<circle cx="918.769" cy="30.2692" r="5.76923" fill="#DED5FF" fill-opacity="0.5"/>
<circle cx="179.769" cy="63.2692" r="5.76923" fill="#DED5FF" fill-opacity="0.5"/>
</g>
</svg>
